<?xml version="1.0" encoding="utf-8"?>
<!-- Generator: Adobe Illustrator 28.0.0, SVG Export Plug-In . SVG Version: 6.00 Build 0)  -->
<svg version="1.1" id="Capa_1" xmlns="http://www.w3.org/2000/svg" xmlns:xlink="http://www.w3.org/1999/xlink" x="0px" y="0px"
	 viewBox="0 0 976.7 345" style="enable-background:new 0 0 976.7 345;" xml:space="preserve">
<style type="text/css">
	.st0{display:none;}
	.st1{display:inline;fill:#CD1516;}
	.st2{fill:#FFFFFF;}
	.st3{fill:#CC161A;}
	.st4{fill:#CD1516;}
</style>
<g class="st0">
	<rect x="-7060.3" y="-1946.02" class="st1" width="615" height="57"/>
	
		<text transform="matrix(1.0424 0 0 1 -7055.3037 -2048.7483)" class="st1" style="font-family:'Future-Earth'; font-size:103.2729px;">OPEN</text>
	
		<text transform="matrix(0.9473 0 0 1 -7049.3032 -1906.6584)" style="display:inline;fill:#FFFFFF; font-family:'Future-Earth'; font-size:20.3632px;">CONSTRUCTORA INMOBILIARIA</text>
	
		<text transform="matrix(1.3359 0 0 1 -7060.3032 -1962.1008)" class="st1" style="font-family:'Future-Earth'; font-size:66.878px;">HOUSE</text>
	<polygon class="st1" points="-7060.3,-2697.02 -7060.3,-2354.02 -7060.3,-2198.02 -6970.3,-2198.02 -6970.3,-2352.02 
		-7051.8,-2352.02 -6758.3,-2666.52 -6464.8,-2352.02 -6546.3,-2352.02 -6546.3,-2198.02 -6456.3,-2198.02 -6456.3,-2354.02 
		-6456.3,-2697.02 	"/>
	<rect x="-7060.3" y="-2764.02" class="st1" width="604" height="56"/>
</g>
<g>
	<g>
		<path class="st2" d="M52.53,127.31c-7.93,0-14.63-2.71-20.11-8.14c-5.55-5.43-8.33-11.98-8.33-19.66v-55.6
			c0-7.67,2.78-14.19,8.33-19.55c5.55-5.5,12.26-8.25,20.11-8.25h85.32c7.85,0,14.51,2.75,20,8.25c5.63,5.43,8.44,11.95,8.44,19.55
			v55.6c0,7.75-2.82,14.3-8.44,19.66c-5.55,5.43-12.22,8.14-20,8.14H52.53z M123.63,99.51c3.85,0,7.18-1.34,10-4.02
			c2.81-2.75,4.22-6.04,4.22-9.88v-27.8c0-3.76-1.41-7.02-4.22-9.77c-2.82-2.75-6.15-4.13-10-4.13H66.75
			c-3.93,0-7.3,1.38-10.11,4.13c-2.74,2.75-4.11,6.01-4.11,9.77v27.8c0,3.84,1.37,7.13,4.11,9.88c2.81,2.68,6.18,4.02,10.11,4.02
			H123.63z"/>
		<path class="st2" d="M187.61,127.31V16.11h127.98c3.85,0,7.18,1.38,10,4.13c2.81,2.75,4.22,6.01,4.22,9.77v41.7
			c0,3.84-1.41,7.13-4.22,9.88c-2.82,2.68-6.15,4.02-10,4.02h-99.54v41.7H187.61z M294.26,57.81c1.92,0,3.59-0.65,5-1.95
			c1.41-1.37,2.11-3.04,2.11-4.99c0-1.88-0.7-3.51-2.11-4.89c-1.41-1.37-3.07-2.06-5-2.06h-78.21v13.9H294.26z"/>
		<path class="st2" d="M379.58,127.31c-7.93,0-14.63-2.71-20.11-8.14c-5.55-5.43-8.33-11.98-8.33-19.66v-55.6
			c0-7.67,2.78-14.19,8.33-19.55c5.55-5.5,12.26-8.25,20.11-8.25h95.98v27.8h-88.87c-2,0-3.7,0.69-5.11,2.06c-1.33,1.38-2,3-2,4.89
			v6.95h94.76v27.8h-94.76v6.95c0,1.95,0.67,3.62,2,4.99c1.41,1.3,3.11,1.95,5.11,1.95h92.43v27.8H379.58z"/>
		<path class="st2" d="M500.44,127.31v-83.4c0-7.67,2.78-14.19,8.33-19.55c5.55-5.5,12.26-8.25,20.11-8.25h3.55
			c7.85,0,14.51,2.75,20,8.25c1.78,1.67,3.22,3.4,4.33,5.21l64.54,62.98c1.93,0,3.59-0.65,5-1.95c1.41-1.37,2.11-3.04,2.11-5v-69.5
			h28.44v83.4c0,7.75-2.82,14.3-8.44,19.66c-5.55,5.43-12.22,8.14-20,8.14h-3.55c-7.93,0-14.63-2.71-20.11-8.14
			c-1.78-1.66-3.22-3.4-4.33-5.21l-64.43-63.09c-2,0-3.7,0.69-5.11,2.06c-1.33,1.38-2,3.01-2,4.89v69.5H500.44z"/>
	</g>
	<g>
		<path class="st2" d="M24.09,236.58v-93.05H47.1v34.89h69.03v-34.89h23.01v93.05h-23.01v-34.89H47.1v34.89H24.09z"/>
		<path class="st2" d="M179.41,236.58c-6.41,0-11.84-2.27-16.27-6.82c-4.49-4.54-6.74-10.02-6.74-16.45v-46.52
			c0-6.42,2.25-11.87,6.74-16.36c4.49-4.6,9.92-6.91,16.27-6.91h69.03c6.35,0,11.74,2.3,16.18,6.91c4.55,4.54,6.83,9.99,6.83,16.36
			v46.52c0,6.48-2.28,11.96-6.83,16.45c-4.49,4.54-9.89,6.82-16.18,6.82H179.41z M236.93,213.32c3.12,0,5.81-1.12,8.09-3.36
			c2.28-2.3,3.42-5.06,3.42-8.27v-23.26c0-3.15-1.14-5.88-3.42-8.18c-2.28-2.3-4.97-3.45-8.09-3.45h-46.02
			c-3.18,0-5.9,1.15-8.18,3.45c-2.22,2.3-3.33,5.03-3.33,8.18v23.26c0,3.21,1.11,5.97,3.33,8.27c2.28,2.24,5,3.36,8.18,3.36H236.93z
			"/>
		<path class="st2" d="M311.71,236.58c-6.41,0-11.84-2.27-16.27-6.82c-4.49-4.54-6.74-10.02-6.74-16.45v-69.79h23.01v58.16
			c0,3.21,1.11,5.97,3.33,8.27c2.28,2.24,5,3.36,8.18,3.36h46.02c3.11,0,5.81-1.12,8.09-3.36c2.28-2.3,3.42-5.06,3.42-8.27v-58.16
			h23.01v69.79c0,6.48-2.28,11.96-6.83,16.45c-4.49,4.54-9.89,6.82-16.18,6.82H311.71z"/>
		<path class="st2" d="M418.13,236.58v-23.26h89.16c1.56,0,2.91-0.54,4.04-1.64c1.14-1.15,1.71-2.54,1.71-4.18
			c0-1.57-0.57-2.94-1.71-4.09c-1.14-1.15-2.49-1.73-4.04-1.73h-74.78c-3.18,0-5.9-1.12-8.18-3.36c-2.22-2.3-3.33-5.06-3.33-8.27
			v-34.8c0-3.21,1.11-5.97,3.33-8.27c2.28-2.3,5-3.45,8.18-3.45h100.67v23.26h-83.41c-1.62,0-3,0.58-4.13,1.73
			c-1.08,1.15-1.62,2.51-1.62,4.09c0,1.64,0.54,3.03,1.62,4.18c1.14,1.09,2.52,1.64,4.13,1.64h74.78c3.12,0,5.81,1.15,8.09,3.45
			c2.28,2.3,3.42,5.03,3.42,8.18v34.89c0,3.21-1.14,5.97-3.42,8.27c-2.28,2.24-4.97,3.36-8.09,3.36H418.13z"/>
		<path class="st2" d="M576.33,236.58c-6.41,0-11.84-2.27-16.27-6.82c-4.49-4.54-6.74-10.02-6.74-16.45v-46.52
			c0-6.42,2.25-11.87,6.74-16.36c4.49-4.6,9.92-6.91,16.27-6.91h77.66v23.26h-71.91c-1.62,0-3,0.58-4.13,1.73
			c-1.08,1.15-1.62,2.51-1.62,4.09v5.82h76.67v23.26h-76.67v5.82c0,1.64,0.54,3.03,1.62,4.18c1.14,1.09,2.52,1.64,4.13,1.64h74.78
			v23.26H576.33z"/>
	</g>
	<g>
		<polygon class="st2" points="689.66,42.52 689.66,176.9 689.66,239.2 762.19,239.2 762.19,162.54 722.84,162.54 820.04,59.89 
			917.79,162.54 877.65,162.54 877.65,239.2 950.43,239.2 950.43,176.9 950.43,42.52 		"/>
		<rect x="689.66" y="14.45" class="st2" width="260.78" height="19.16"/>
	</g>
	<g>
		<path class="st2" d="M467.43,277.07h-38.59v10.16h38.59c1.36,0,2.62-0.48,3.62-1.38l0.04-0.04c1.04-0.99,1.59-2.25,1.59-3.66
			c0-1.38-0.55-2.63-1.59-3.61C470.09,277.58,468.82,277.07,467.43,277.07z"/>
		<path class="st2" d="M837.81,277.07h-38.59v10.16h38.59c1.36,0,2.62-0.48,3.62-1.38l0.04-0.04c1.04-0.99,1.59-2.25,1.59-3.66
			c0-1.38-0.55-2.63-1.59-3.61C840.46,277.58,839.2,277.07,837.81,277.07z"/>
		<path class="st2" d="M157.6,277.07h-26.67c-2.34,0-4.38,0.81-6.08,2.42c-1.66,1.62-2.51,3.58-2.51,5.82v12.65
			c0,2.27,0.84,4.25,2.54,5.91c1.68,1.55,3.71,2.34,6.04,2.34h26.67c2.3,0,4.31-0.79,6.01-2.35c1.71-1.62,2.58-3.6,2.58-5.89v-12.65
			c0-2.25-0.87-4.22-2.58-5.84C161.93,277.88,159.91,277.07,157.6,277.07z"/>
		<path class="st2" d="M757.76,277.07h-26.67c-2.34,0-4.38,0.81-6.08,2.42c-1.66,1.62-2.5,3.58-2.5,5.82v12.65
			c0,2.27,0.84,4.25,2.54,5.91c1.68,1.55,3.71,2.34,6.04,2.34h26.67c2.3,0,4.31-0.79,6.01-2.35c1.71-1.62,2.58-3.6,2.58-5.89v-12.65
			c0-2.25-0.87-4.22-2.58-5.84C762.08,277.88,760.06,277.07,757.76,277.07z"/>
		<path class="st2" d="M24.09,251.67v78.88h926.34v-78.88H24.09z M98.76,315.03H54c-3.23,0-5.88-1.04-8.11-3.18
			c-2.23-2.11-3.31-4.58-3.31-7.56v-25.31c0-2.97,1.08-5.42,3.32-7.51c2.25-2.17,4.9-3.22,8.1-3.22h44.19v8.82H60.66
			c-2.34,0-4.38,0.81-6.08,2.42c-1.66,1.62-2.51,3.58-2.51,5.82v12.65c0,2.28,0.84,4.25,2.51,5.87l0.04,0.04
			c1.68,1.55,3.71,2.34,6.04,2.34h38.09V315.03z M175.44,304.3c0,2.99-1.09,5.46-3.36,7.56c-2.26,2.14-4.89,3.18-8.06,3.18h-40.01
			c-3.23,0-5.88-1.04-8.11-3.18c-2.23-2.11-3.31-4.58-3.31-7.56v-25.31c0-2.97,1.08-5.42,3.32-7.51c2.26-2.17,4.9-3.22,8.1-3.22
			h40.01c3.19,0,5.82,1.05,8.07,3.24c2.26,2.11,3.35,4.56,3.35,7.5V304.3z M258.8,304.3c0,2.99-1.09,5.46-3.36,7.56
			c-2.26,2.14-4.89,3.18-8.06,3.18h-1.67c-3.23,0-5.8-1.07-8.06-3.24l-3.16-3.31c-0.38-0.35-0.75-0.7-1.13-1.06
			c-0.47-0.44-0.95-0.89-1.42-1.33c-0.56-0.52-1.11-1.04-1.67-1.56c-0.63-0.59-1.25-1.17-1.88-1.76c-0.68-0.64-1.36-1.27-2.04-1.91
			c-0.72-0.67-1.44-1.35-2.16-2.02c-0.74-0.7-1.49-1.39-2.24-2.09c-0.76-0.71-1.51-1.41-2.27-2.12c-0.75-0.7-1.5-1.41-2.26-2.11
			c-0.73-0.69-1.47-1.37-2.2-2.06c-0.7-0.65-1.4-1.31-2.1-1.96c-0.65-0.61-1.3-1.22-1.96-1.83c-0.59-0.55-1.18-1.1-1.77-1.66
			c-0.51-0.48-1.04-0.95-1.54-1.44c-0.67-0.66-1.24-1.27-1.89-1.9c-0.55-0.53-1.2-1.14-1.97-1.32c-0.05-0.01-0.11-0.02-0.16-0.03
			c-0.6-0.09-1.21,0.06-1.76,0.27c-0.66,0.25-1.3,0.65-1.8,1.15c-0.98,0.98-1.5,2.22-1.5,3.58v29.72h-9.5v-36.04
			c0-2.97,1.08-5.42,3.32-7.51c2.25-2.17,4.9-3.22,8.1-3.22h1.67c3.19,0,5.62,1,7.88,3.21c0.7,0.64,1.22,1.36,1.91,2.03l0.22,0.2
			c0.14,0.13,0.28,0.27,0.42,0.4c0.37,0.36,0.75,0.71,1.12,1.07c0.57,0.54,1.14,1.08,1.71,1.63c0.73,0.7,1.47,1.39,2.2,2.09
			c0.86,0.82,1.72,1.63,2.57,2.45c0.95,0.9,1.9,1.8,2.84,2.7c1,0.95,2.01,1.9,3.01,2.86c1.02,0.97,2.04,1.94,3.06,2.91
			c1,0.95,2.01,1.91,3.01,2.86c0.95,0.9,1.9,1.81,2.85,2.71c0.86,0.82,1.72,1.64,2.58,2.45c0.74,0.7,1.47,1.4,2.21,2.1
			c0.58,0.55,1.15,1.09,1.73,1.64c0.49,0.47,1.07,1.09,1.71,1.36c0.72,0.31,1.55,0.14,2.26-0.09c0.75-0.25,1.46-0.64,2.04-1.18
			c1.04-0.98,1.59-2.25,1.59-3.66v-29.72h9.5V304.3z M335.48,310.62c0,1.23-0.44,2.21-1.36,3.09c-0.96,0.89-2.07,1.32-3.39,1.32
			h-59.77v-8.82h49.76c1.37,0,2.62-0.48,3.66-1.42c1.04-0.98,1.59-2.25,1.59-3.66c0-1.38-0.55-2.63-1.59-3.62
			c-1.01-0.96-2.28-1.46-3.66-1.46h-43.34c-1.35,0-2.48-0.43-3.4-1.29c-0.92-0.9-1.35-1.89-1.35-3.13v-18.93
			c0-1.24,0.43-2.23,1.33-3.11c0.96-0.91,2.08-1.35,3.42-1.35h56.43v8.82h-46.43c-1.42,0-2.71,0.51-3.75,1.5
			c-0.98,0.98-1.5,2.22-1.5,3.58c0,1.39,0.52,2.65,1.5,3.63l0.08,0.07c1.01,0.9,2.28,1.38,3.68,1.38h43.34
			c1.31,0,2.41,0.44,3.37,1.35c0.94,0.89,1.38,1.87,1.38,3.06V310.62z M408.84,277.07h-26.67v37.96h-9.5v-37.96h-26.67v-8.82h62.85
			V277.07z M476.24,315.03l-1.92-11.11l-0.42-2.13l-0.08-0.29c-0.41-1.13-1.1-2.16-2.04-3.06c-1.68-1.59-3.7-2.4-6.01-2.4h-36.92
			v18.98h-9.5v-46.78h58.1c1.31,0,2.41,0.44,3.37,1.35c0.94,0.9,1.38,1.87,1.38,3.06v11.07c0,2.99-1.09,5.46-3.39,7.59
			c-0.55,0.55-1.15,1.02-1.77,1.4l-2.74,1.65c0.13,0.06,0.25,0.13,0.38,0.19c0.82,0.43,1.6,0.91,2.4,1.38
			c0.8,0.47,1.59,0.95,2.34,1.49c1.42,1.04,2.59,2.34,3.37,3.9c0.52,1.04,0.79,2.19,1.11,3.31c0.03,0.09,0.05,0.18,0.07,0.26
			l2.67,10.13H476.24z M558.87,304.3c0,2.99-1.09,5.46-3.36,7.56c-2.26,2.14-4.89,3.18-8.06,3.18h-40.01
			c-3.23,0-5.88-1.04-8.11-3.18c-2.23-2.11-3.31-4.58-3.31-7.56v-36.04h9.51v29.72c0,2.28,0.84,4.25,2.54,5.91
			c1.68,1.55,3.71,2.34,6.04,2.34h26.67c2.3,0,4.31-0.79,6.01-2.35c1.71-1.62,2.58-3.6,2.58-5.89v-29.72h9.5V304.3z M628.89,315.03
			h-44.76c-3.23,0-5.88-1.04-8.11-3.18c-2.23-2.11-3.31-4.58-3.31-7.56v-25.31c0-2.97,1.08-5.42,3.32-7.51
			c2.25-2.17,4.9-3.22,8.1-3.22h44.19v8.82H590.8c-2.34,0-4.38,0.81-6.08,2.42c-1.66,1.62-2.51,3.58-2.51,5.82v12.65
			c0,2.28,0.84,4.25,2.51,5.87l0.04,0.04c1.68,1.55,3.71,2.34,6.04,2.34h38.09V315.03z M702.24,277.07h-26.67v37.96h-9.51v-37.96
			h-26.67v-8.82h62.85V277.07z M775.6,304.3c0,2.99-1.09,5.46-3.36,7.56c-2.26,2.14-4.89,3.18-8.06,3.18h-40.01
			c-3.23,0-5.88-1.04-8.11-3.18c-2.23-2.11-3.31-4.58-3.31-7.56v-25.31c0-2.97,1.08-5.42,3.32-7.51c2.25-2.17,4.9-3.22,8.1-3.22
			h40.01c3.19,0,5.82,1.05,8.07,3.24c2.26,2.11,3.35,4.56,3.35,7.5V304.3z M846.62,315.03l-1.92-11.11l-0.42-2.13l-0.08-0.29
			c-0.41-1.13-1.1-2.16-2.04-3.06c-1.68-1.59-3.7-2.4-6.01-2.4h-36.92v18.98h-9.5v-46.78h58.1c1.31,0,2.41,0.44,3.37,1.35
			c0.94,0.9,1.38,1.87,1.38,3.06v11.07c0,2.99-1.09,5.46-3.39,7.59c-0.55,0.55-1.15,1.02-1.77,1.4l-2.74,1.65
			c0.13,0.06,0.25,0.13,0.38,0.19c0.82,0.43,1.6,0.91,2.4,1.38c0.8,0.47,1.59,0.95,2.34,1.49c1.42,1.04,2.59,2.34,3.37,3.9
			c0.52,1.04,0.79,2.19,1.11,3.31c0.03,0.09,0.05,0.18,0.07,0.26l2.67,10.13H846.62z M918.7,315.03l-5-9.49h-32.32l-5,9.49h-12.34
			l21.57-40.93l0.26-0.4c0.5-0.78,1.13-1.52,1.9-2.22c2.25-2.17,4.9-3.22,8.1-3.22h3.33c3.19,0,5.82,1.05,8.09,3.26
			c0.73,0.67,1.36,1.4,1.86,2.19l0.29,0.46c0.16,0.26,0.32,0.52,0.46,0.79l21.13,40.09H918.7z"/>
		<path class="st2" d="M897.59,276.35L897.59,276.35l-0.01,0c-0.01,0-0.02,0-0.03,0c-1.52,0-2.52,1.05-3.19,2.42l-9.98,19h26.36
			l-9.86-18.78C900.22,277.55,899.17,276.37,897.59,276.35z"/>
	</g>
</g>
<g>
	<g>
		<path d="M52.53-271.78c-7.93,0-14.63-2.71-20.11-8.14c-5.55-5.43-8.33-11.98-8.33-19.66v-55.6c0-7.67,2.78-14.19,8.33-19.55
			c5.55-5.5,12.26-8.25,20.11-8.25h85.32c7.85,0,14.51,2.75,20,8.25c5.63,5.43,8.44,11.95,8.44,19.55v55.6
			c0,7.75-2.82,14.3-8.44,19.66c-5.55,5.43-12.22,8.14-20,8.14H52.53z M123.63-299.58c3.85,0,7.18-1.34,10-4.02
			c2.81-2.75,4.22-6.04,4.22-9.88v-27.8c0-3.76-1.41-7.02-4.22-9.77c-2.82-2.75-6.15-4.13-10-4.13H66.75
			c-3.93,0-7.3,1.38-10.11,4.13c-2.74,2.75-4.11,6.01-4.11,9.77v27.8c0,3.84,1.37,7.13,4.11,9.88c2.81,2.68,6.18,4.02,10.11,4.02
			H123.63z"/>
		<path d="M187.61-271.78v-111.2h127.98c3.85,0,7.18,1.38,10,4.13c2.81,2.75,4.22,6.01,4.22,9.77v41.7c0,3.84-1.41,7.13-4.22,9.88
			c-2.82,2.68-6.15,4.02-10,4.02h-99.54v41.7H187.61z M294.26-341.28c1.92,0,3.59-0.65,5-1.95c1.41-1.37,2.11-3.04,2.11-4.99
			c0-1.88-0.7-3.51-2.11-4.89c-1.41-1.37-3.07-2.06-5-2.06h-78.21v13.9H294.26z"/>
		<path d="M379.58-271.78c-7.93,0-14.63-2.71-20.11-8.14c-5.55-5.43-8.33-11.98-8.33-19.66v-55.6c0-7.67,2.78-14.19,8.33-19.55
			c5.55-5.5,12.26-8.25,20.11-8.25h95.98v27.8h-88.87c-2,0-3.7,0.69-5.11,2.06c-1.33,1.38-2,3-2,4.89v6.95h94.76v27.8h-94.76v6.95
			c0,1.95,0.67,3.62,2,4.99c1.41,1.3,3.11,1.95,5.11,1.95h92.43v27.8H379.58z"/>
		<path d="M500.44-271.78v-83.4c0-7.67,2.78-14.19,8.33-19.55c5.55-5.5,12.26-8.25,20.11-8.25h3.55c7.85,0,14.51,2.75,20,8.25
			c1.78,1.67,3.22,3.4,4.33,5.21l64.54,62.98c1.93,0,3.59-0.65,5-1.95c1.41-1.37,2.11-3.04,2.11-5v-69.5h28.44v83.4
			c0,7.75-2.82,14.3-8.44,19.66c-5.55,5.43-12.22,8.14-20,8.14h-3.55c-7.93,0-14.63-2.71-20.11-8.14c-1.78-1.66-3.22-3.4-4.33-5.21
			l-64.43-63.09c-2,0-3.7,0.69-5.11,2.06c-1.33,1.38-2,3.01-2,4.89v69.5H500.44z"/>
	</g>
	<g>
		<path d="M24.09-162.51v-93.05H47.1v34.89h69.03v-34.89h23.01v93.05h-23.01v-34.89H47.1v34.89H24.09z"/>
		<path d="M179.41-162.51c-6.41,0-11.84-2.27-16.27-6.82c-4.49-4.54-6.74-10.02-6.74-16.45v-46.52c0-6.42,2.25-11.87,6.74-16.36
			c4.49-4.6,9.92-6.91,16.27-6.91h69.03c6.35,0,11.74,2.3,16.18,6.91c4.55,4.54,6.83,9.99,6.83,16.36v46.52
			c0,6.48-2.28,11.96-6.83,16.45c-4.49,4.54-9.89,6.82-16.18,6.82H179.41z M236.93-185.77c3.12,0,5.81-1.12,8.09-3.36
			c2.28-2.3,3.42-5.06,3.42-8.27v-23.26c0-3.15-1.14-5.87-3.42-8.18c-2.28-2.3-4.97-3.45-8.09-3.45h-46.02
			c-3.18,0-5.9,1.15-8.18,3.45c-2.22,2.3-3.33,5.03-3.33,8.18v23.26c0,3.21,1.11,5.97,3.33,8.27c2.28,2.24,5,3.36,8.18,3.36H236.93z
			"/>
		<path d="M311.71-162.51c-6.41,0-11.84-2.27-16.27-6.82c-4.49-4.54-6.74-10.02-6.74-16.45v-69.79h23.01v58.16
			c0,3.21,1.11,5.97,3.33,8.27c2.28,2.24,5,3.36,8.18,3.36h46.02c3.11,0,5.81-1.12,8.09-3.36c2.28-2.3,3.42-5.06,3.42-8.27v-58.16
			h23.01v69.79c0,6.48-2.28,11.96-6.83,16.45c-4.49,4.54-9.89,6.82-16.18,6.82H311.71z"/>
		<path d="M418.13-162.51v-23.26h89.16c1.56,0,2.91-0.54,4.04-1.64c1.14-1.15,1.71-2.54,1.71-4.18c0-1.57-0.57-2.94-1.71-4.09
			c-1.14-1.15-2.49-1.73-4.04-1.73h-74.78c-3.18,0-5.9-1.12-8.18-3.36c-2.22-2.3-3.33-5.06-3.33-8.27v-34.8
			c0-3.21,1.11-5.97,3.33-8.27c2.28-2.3,5-3.45,8.18-3.45h100.67v23.26h-83.41c-1.62,0-3,0.58-4.13,1.73
			c-1.08,1.15-1.62,2.51-1.62,4.09c0,1.64,0.54,3.03,1.62,4.18c1.14,1.09,2.52,1.64,4.13,1.64h74.78c3.12,0,5.81,1.15,8.09,3.45
			c2.28,2.3,3.42,5.03,3.42,8.18v34.89c0,3.21-1.14,5.97-3.42,8.27c-2.28,2.24-4.97,3.36-8.09,3.36H418.13z"/>
		<path d="M576.33-162.51c-6.41,0-11.84-2.27-16.27-6.82c-4.49-4.54-6.74-10.02-6.74-16.45v-46.52c0-6.42,2.25-11.87,6.74-16.36
			c4.49-4.6,9.92-6.91,16.27-6.91h77.66v23.26h-71.91c-1.62,0-3,0.58-4.13,1.73c-1.08,1.15-1.62,2.51-1.62,4.09v5.82h76.67v23.26
			h-76.67v5.82c0,1.64,0.54,3.03,1.62,4.18c1.14,1.09,2.52,1.64,4.13,1.64h74.78v23.26H576.33z"/>
	</g>
	<g>
		<polygon points="689.66,-356.56 689.66,-222.19 689.66,-159.88 762.19,-159.88 762.19,-236.54 722.84,-236.54 820.04,-339.2 
			917.79,-236.54 877.65,-236.54 877.65,-159.88 950.43,-159.88 950.43,-222.19 950.43,-356.56 		"/>
		<rect x="689.66" y="-384.63" width="260.78" height="19.16"/>
	</g>
	<g>
		<path d="M467.43-122.02h-38.59v10.16h38.59c1.36,0,2.62-0.48,3.62-1.38l0.04-0.04c1.04-0.99,1.59-2.25,1.59-3.66
			c0-1.38-0.55-2.63-1.59-3.61C470.09-121.51,468.82-122.02,467.43-122.02z"/>
		<path d="M837.81-122.02h-38.59v10.16h38.59c1.36,0,2.62-0.48,3.62-1.38l0.04-0.04c1.04-0.99,1.59-2.25,1.59-3.66
			c0-1.38-0.55-2.63-1.59-3.61C840.46-121.51,839.2-122.02,837.81-122.02z"/>
		<path d="M157.6-122.01h-26.67c-2.34,0-4.38,0.81-6.08,2.42c-1.66,1.62-2.51,3.58-2.51,5.82v12.65c0,2.27,0.84,4.25,2.54,5.91
			c1.68,1.55,3.71,2.34,6.04,2.34h26.67c2.3,0,4.31-0.79,6.01-2.35c1.71-1.62,2.58-3.6,2.58-5.89v-12.65c0-2.25-0.87-4.22-2.58-5.84
			C161.93-121.2,159.91-122.01,157.6-122.01z"/>
		<path d="M757.76-122.01h-26.67c-2.34,0-4.38,0.81-6.08,2.42c-1.66,1.62-2.5,3.58-2.5,5.82v12.65c0,2.27,0.84,4.25,2.54,5.91
			c1.68,1.55,3.71,2.34,6.04,2.34h26.67c2.3,0,4.31-0.79,6.01-2.35c1.71-1.62,2.58-3.6,2.58-5.89v-12.65c0-2.25-0.87-4.22-2.58-5.84
			C762.08-121.21,760.06-122.01,757.76-122.01z"/>
		<path d="M24.09-147.42v78.88h926.34v-78.88H24.09z M98.76-84.05H54c-3.23,0-5.88-1.04-8.11-3.18c-2.23-2.11-3.31-4.58-3.31-7.56
			v-25.31c0-2.97,1.08-5.42,3.32-7.51c2.25-2.17,4.9-3.22,8.1-3.22h44.19v8.82H60.66c-2.34,0-4.38,0.81-6.08,2.42
			c-1.66,1.62-2.51,3.58-2.51,5.82v12.65c0,2.28,0.84,4.25,2.51,5.87l0.04,0.04c1.68,1.55,3.71,2.34,6.04,2.34h38.09V-84.05z
			 M175.44-94.79c0,2.99-1.09,5.46-3.36,7.56c-2.26,2.14-4.89,3.18-8.06,3.18h-40.01c-3.23,0-5.88-1.04-8.11-3.18
			c-2.23-2.11-3.31-4.58-3.31-7.56v-25.31c0-2.97,1.08-5.42,3.32-7.51c2.26-2.17,4.9-3.22,8.1-3.22h40.01
			c3.19,0,5.82,1.05,8.07,3.24c2.26,2.11,3.35,4.56,3.35,7.5V-94.79z M258.8-94.79c0,2.99-1.09,5.46-3.36,7.56
			c-2.26,2.14-4.89,3.18-8.06,3.18h-1.67c-3.23,0-5.8-1.07-8.06-3.24l-3.16-3.31c-0.38-0.35-0.75-0.7-1.13-1.06
			c-0.47-0.44-0.95-0.89-1.42-1.33c-0.56-0.52-1.11-1.04-1.67-1.56c-0.63-0.59-1.25-1.17-1.88-1.76c-0.68-0.64-1.36-1.27-2.04-1.91
			c-0.72-0.67-1.44-1.35-2.16-2.02c-0.74-0.7-1.49-1.39-2.24-2.09c-0.76-0.71-1.51-1.41-2.27-2.12c-0.75-0.7-1.5-1.41-2.26-2.11
			c-0.73-0.69-1.47-1.37-2.2-2.06c-0.7-0.65-1.4-1.31-2.1-1.96c-0.65-0.61-1.3-1.22-1.96-1.83c-0.59-0.55-1.18-1.1-1.77-1.66
			c-0.51-0.48-1.04-0.95-1.54-1.44c-0.67-0.66-1.24-1.27-1.89-1.9c-0.55-0.53-1.2-1.14-1.97-1.32c-0.05-0.01-0.11-0.02-0.16-0.03
			c-0.6-0.09-1.21,0.06-1.76,0.27c-0.66,0.25-1.3,0.65-1.8,1.15c-0.98,0.98-1.5,2.22-1.5,3.58v29.72h-9.5v-36.04
			c0-2.97,1.08-5.42,3.32-7.51c2.25-2.17,4.9-3.22,8.1-3.22h1.67c3.19,0,5.62,1,7.88,3.21c0.7,0.64,1.22,1.36,1.91,2.03l0.22,0.2
			c0.14,0.13,0.28,0.27,0.42,0.4c0.37,0.35,0.75,0.71,1.12,1.06c0.57,0.54,1.14,1.08,1.71,1.63c0.73,0.7,1.47,1.39,2.2,2.09
			c0.86,0.82,1.72,1.63,2.57,2.45c0.95,0.9,1.9,1.8,2.84,2.7c1,0.95,2.01,1.9,3.01,2.86c1.02,0.97,2.04,1.94,3.06,2.91
			c1,0.95,2.01,1.91,3.01,2.86c0.95,0.9,1.9,1.81,2.85,2.71c0.86,0.82,1.72,1.64,2.58,2.45c0.74,0.7,1.47,1.4,2.21,2.1
			c0.58,0.55,1.15,1.09,1.73,1.64c0.49,0.47,1.07,1.09,1.71,1.36c0.72,0.31,1.55,0.14,2.26-0.09c0.75-0.25,1.46-0.64,2.04-1.18
			c1.04-0.98,1.59-2.25,1.59-3.66v-29.72h9.5V-94.79z M335.48-88.46c0,1.23-0.44,2.21-1.36,3.09c-0.96,0.89-2.07,1.32-3.39,1.32
			h-59.77v-8.82h49.76c1.37,0,2.62-0.48,3.66-1.42c1.04-0.98,1.59-2.25,1.59-3.66c0-1.38-0.55-2.63-1.59-3.62
			c-1.01-0.96-2.28-1.46-3.66-1.46h-43.34c-1.35,0-2.48-0.43-3.4-1.29c-0.92-0.9-1.35-1.89-1.35-3.13v-18.93
			c0-1.24,0.43-2.23,1.33-3.11c0.96-0.91,2.08-1.35,3.42-1.35h56.43v8.82h-46.43c-1.42,0-2.71,0.51-3.75,1.5
			c-0.98,0.98-1.5,2.22-1.5,3.58c0,1.39,0.52,2.65,1.5,3.63l0.08,0.07c1.01,0.9,2.28,1.38,3.68,1.38h43.34
			c1.31,0,2.41,0.44,3.37,1.35c0.94,0.9,1.38,1.87,1.38,3.06V-88.46z M408.84-122.01h-26.67v37.96h-9.5v-37.96h-26.67v-8.82h62.85
			V-122.01z M476.24-84.05l-1.92-11.11l-0.42-2.13l-0.08-0.29c-0.41-1.13-1.1-2.16-2.04-3.06c-1.68-1.59-3.7-2.4-6.01-2.4h-36.92
			v18.98h-9.5v-46.78h58.1c1.31,0,2.41,0.44,3.37,1.35c0.94,0.9,1.38,1.87,1.38,3.06v11.07c0,2.99-1.09,5.46-3.39,7.59
			c-0.55,0.55-1.15,1.02-1.77,1.4l-2.74,1.65c0.13,0.06,0.25,0.13,0.38,0.19c0.82,0.43,1.6,0.91,2.4,1.38
			c0.8,0.47,1.59,0.95,2.34,1.49c1.42,1.04,2.59,2.34,3.37,3.9c0.52,1.05,0.79,2.19,1.11,3.31c0.03,0.09,0.05,0.18,0.07,0.26
			l2.67,10.13H476.24z M558.87-94.79c0,2.99-1.09,5.46-3.36,7.56c-2.26,2.14-4.89,3.18-8.06,3.18h-40.01
			c-3.23,0-5.88-1.04-8.11-3.18c-2.23-2.11-3.31-4.58-3.31-7.56v-36.04h9.51v29.72c0,2.28,0.84,4.25,2.54,5.91
			c1.68,1.55,3.71,2.34,6.04,2.34h26.67c2.3,0,4.31-0.79,6.01-2.35c1.71-1.62,2.58-3.6,2.58-5.89v-29.72h9.5V-94.79z M628.89-84.05
			h-44.76c-3.23,0-5.88-1.04-8.11-3.18c-2.23-2.11-3.31-4.58-3.31-7.56v-25.31c0-2.97,1.08-5.42,3.32-7.51
			c2.25-2.17,4.9-3.22,8.1-3.22h44.19v8.82H590.8c-2.34,0-4.38,0.81-6.08,2.42c-1.66,1.62-2.51,3.58-2.51,5.82v12.65
			c0,2.28,0.84,4.25,2.51,5.87l0.04,0.04c1.68,1.55,3.71,2.34,6.04,2.34h38.09V-84.05z M702.24-122.01h-26.67v37.96h-9.51v-37.96
			h-26.67v-8.82h62.85V-122.01z M775.6-94.79c0,2.99-1.09,5.46-3.36,7.56c-2.26,2.14-4.89,3.18-8.06,3.18h-40.01
			c-3.23,0-5.88-1.04-8.11-3.18c-2.23-2.11-3.31-4.58-3.31-7.56v-25.31c0-2.97,1.08-5.42,3.32-7.51c2.25-2.17,4.9-3.22,8.1-3.22
			h40.01c3.19,0,5.82,1.05,8.07,3.24c2.26,2.11,3.35,4.56,3.35,7.5V-94.79z M846.62-84.05l-1.92-11.11l-0.42-2.13l-0.08-0.29
			c-0.41-1.13-1.1-2.16-2.04-3.06c-1.68-1.59-3.7-2.4-6.01-2.4h-36.92v18.98h-9.5v-46.78h58.1c1.31,0,2.41,0.44,3.37,1.35
			c0.94,0.9,1.38,1.87,1.38,3.06v11.07c0,2.99-1.09,5.46-3.39,7.59c-0.55,0.55-1.15,1.02-1.77,1.4l-2.74,1.65
			c0.13,0.06,0.25,0.13,0.38,0.19c0.82,0.43,1.6,0.91,2.4,1.38c0.8,0.47,1.59,0.95,2.34,1.49c1.42,1.04,2.59,2.34,3.37,3.9
			c0.52,1.05,0.79,2.19,1.11,3.31c0.03,0.09,0.05,0.18,0.07,0.26L857-84.05H846.62z M918.7-84.05l-5-9.49h-32.32l-5,9.49h-12.34
			l21.57-40.93l0.26-0.4c0.5-0.78,1.13-1.52,1.9-2.22c2.25-2.17,4.9-3.22,8.1-3.22h3.33c3.19,0,5.82,1.05,8.09,3.26
			c0.73,0.67,1.36,1.4,1.86,2.19l0.29,0.46c0.16,0.26,0.32,0.52,0.46,0.79l21.13,40.09H918.7z"/>
		<path d="M897.59-122.74L897.59-122.74l-0.01,0c-0.01,0-0.02,0-0.03,0c-1.52,0-2.52,1.05-3.19,2.42l-9.98,19h26.36l-9.86-18.78
			C900.22-121.54,899.17-122.72,897.59-122.74z"/>
	</g>
</g>
<g>
	<g>
		<path class="st3" d="M52.53-661.52c-7.93,0-14.63-2.71-20.11-8.14c-5.55-5.43-8.33-11.98-8.33-19.66v-55.6
			c0-7.67,2.78-14.19,8.33-19.55c5.55-5.5,12.26-8.25,20.11-8.25h85.32c7.85,0,14.51,2.75,20,8.25c5.63,5.43,8.44,11.95,8.44,19.55
			v55.6c0,7.75-2.82,14.3-8.44,19.66c-5.55,5.43-12.22,8.14-20,8.14H52.53z M123.63-689.32c3.85,0,7.18-1.34,10-4.02
			c2.81-2.75,4.22-6.04,4.22-9.88v-27.8c0-3.76-1.41-7.02-4.22-9.77c-2.82-2.75-6.15-4.13-10-4.13H66.75
			c-3.93,0-7.3,1.38-10.11,4.13c-2.74,2.75-4.11,6.01-4.11,9.77v27.8c0,3.84,1.37,7.13,4.11,9.88c2.81,2.68,6.18,4.02,10.11,4.02
			H123.63z"/>
		<path class="st3" d="M187.61-661.52v-111.2h127.98c3.85,0,7.18,1.38,10,4.13c2.81,2.75,4.22,6.01,4.22,9.77v41.7
			c0,3.84-1.41,7.13-4.22,9.88c-2.82,2.68-6.15,4.02-10,4.02h-99.54v41.7H187.61z M294.26-731.02c1.92,0,3.59-0.65,5-1.95
			c1.41-1.37,2.11-3.04,2.11-4.99c0-1.88-0.7-3.51-2.11-4.89c-1.41-1.37-3.07-2.06-5-2.06h-78.21v13.9H294.26z"/>
		<path class="st3" d="M379.58-661.52c-7.93,0-14.63-2.71-20.11-8.14c-5.55-5.43-8.33-11.98-8.33-19.66v-55.6
			c0-7.67,2.78-14.19,8.33-19.55c5.55-5.5,12.26-8.25,20.11-8.25h95.98v27.8h-88.87c-2,0-3.7,0.69-5.11,2.06c-1.33,1.38-2,3-2,4.89
			v6.95h94.76v27.8h-94.76v6.95c0,1.95,0.67,3.62,2,4.99c1.41,1.3,3.11,1.95,5.11,1.95h92.43v27.8H379.58z"/>
		<path class="st3" d="M500.44-661.52v-83.4c0-7.67,2.78-14.19,8.33-19.55c5.55-5.5,12.26-8.25,20.11-8.25h3.55
			c7.85,0,14.51,2.75,20,8.25c1.78,1.67,3.22,3.4,4.33,5.21l64.54,62.98c1.93,0,3.59-0.65,5-1.95c1.41-1.37,2.11-3.04,2.11-5v-69.5
			h28.44v83.4c0,7.75-2.82,14.3-8.44,19.66c-5.55,5.43-12.22,8.14-20,8.14h-3.55c-7.93,0-14.63-2.71-20.11-8.14
			c-1.78-1.66-3.22-3.4-4.33-5.21l-64.43-63.09c-2,0-3.7,0.69-5.11,2.06c-1.33,1.38-2,3.01-2,4.89v69.5H500.44z"/>
	</g>
	<g>
		<path class="st3" d="M24.09-552.25v-93.05H47.1v34.89h69.03v-34.89h23.01v93.05h-23.01v-34.89H47.1v34.89H24.09z"/>
		<path class="st3" d="M179.41-552.25c-6.41,0-11.84-2.27-16.27-6.82c-4.49-4.54-6.74-10.02-6.74-16.45v-46.52
			c0-6.42,2.25-11.87,6.74-16.36c4.49-4.6,9.92-6.91,16.27-6.91h69.03c6.35,0,11.74,2.3,16.18,6.91c4.55,4.54,6.83,9.99,6.83,16.36
			v46.52c0,6.48-2.28,11.96-6.83,16.45c-4.49,4.54-9.89,6.82-16.18,6.82H179.41z M236.93-575.51c3.12,0,5.81-1.12,8.09-3.36
			c2.28-2.3,3.42-5.06,3.42-8.27v-23.26c0-3.15-1.14-5.88-3.42-8.18c-2.28-2.3-4.97-3.45-8.09-3.45h-46.02
			c-3.18,0-5.9,1.15-8.18,3.45c-2.22,2.3-3.33,5.03-3.33,8.18v23.26c0,3.21,1.11,5.97,3.33,8.27c2.28,2.24,5,3.36,8.18,3.36H236.93z
			"/>
		<path class="st3" d="M311.71-552.25c-6.41,0-11.84-2.27-16.27-6.82c-4.49-4.54-6.74-10.02-6.74-16.45v-69.79h23.01v58.16
			c0,3.21,1.11,5.97,3.33,8.27c2.28,2.24,5,3.36,8.18,3.36h46.02c3.11,0,5.81-1.12,8.09-3.36c2.28-2.3,3.42-5.06,3.42-8.27v-58.16
			h23.01v69.79c0,6.48-2.28,11.96-6.83,16.45c-4.49,4.54-9.89,6.82-16.18,6.82H311.71z"/>
		<path class="st3" d="M418.13-552.25v-23.26h89.16c1.56,0,2.91-0.54,4.04-1.64c1.14-1.15,1.71-2.54,1.71-4.18
			c0-1.57-0.57-2.94-1.71-4.09c-1.14-1.15-2.49-1.73-4.04-1.73h-74.78c-3.18,0-5.9-1.12-8.18-3.36c-2.22-2.3-3.33-5.06-3.33-8.27
			v-34.8c0-3.21,1.11-5.97,3.33-8.27c2.28-2.3,5-3.45,8.18-3.45h100.67v23.26h-83.41c-1.62,0-3,0.58-4.13,1.73
			c-1.08,1.15-1.62,2.51-1.62,4.09c0,1.64,0.54,3.03,1.62,4.18c1.14,1.09,2.52,1.64,4.13,1.64h74.78c3.12,0,5.81,1.15,8.09,3.45
			c2.28,2.3,3.42,5.03,3.42,8.18v34.89c0,3.21-1.14,5.97-3.42,8.27c-2.28,2.24-4.97,3.36-8.09,3.36H418.13z"/>
		<path class="st3" d="M576.33-552.25c-6.41,0-11.84-2.27-16.27-6.82c-4.49-4.54-6.74-10.02-6.74-16.45v-46.52
			c0-6.42,2.25-11.87,6.74-16.36c4.49-4.6,9.92-6.91,16.27-6.91h77.66v23.26h-71.91c-1.62,0-3,0.58-4.13,1.73
			c-1.08,1.15-1.62,2.51-1.62,4.09v5.82h76.67v23.26h-76.67v5.82c0,1.64,0.54,3.03,1.62,4.18c1.14,1.09,2.52,1.64,4.13,1.64h74.78
			v23.26H576.33z"/>
	</g>
	<g>
		<polygon class="st3" points="689.66,-746.3 689.66,-611.93 689.66,-549.62 762.19,-549.62 762.19,-626.28 722.84,-626.28 
			820.04,-728.94 917.79,-626.28 877.65,-626.28 877.65,-549.62 950.43,-549.62 950.43,-611.93 950.43,-746.3 		"/>
		<rect x="689.66" y="-774.37" class="st3" width="260.78" height="19.16"/>
	</g>
	<g>
		<path class="st3" d="M467.43-511.76h-38.59v10.16h38.59c1.36,0,2.62-0.48,3.62-1.38l0.04-0.04c1.04-0.99,1.59-2.25,1.59-3.66
			c0-1.38-0.55-2.63-1.59-3.61C470.09-511.25,468.82-511.76,467.43-511.76z"/>
		<path class="st3" d="M837.81-511.76h-38.59v10.16h38.59c1.36,0,2.62-0.48,3.62-1.38l0.04-0.04c1.04-0.99,1.59-2.25,1.59-3.66
			c0-1.38-0.55-2.63-1.59-3.61C840.46-511.25,839.2-511.76,837.81-511.76z"/>
		<path class="st3" d="M157.6-511.75h-26.67c-2.34,0-4.38,0.81-6.08,2.42c-1.66,1.62-2.51,3.58-2.51,5.82v12.65
			c0,2.27,0.84,4.25,2.54,5.91c1.68,1.55,3.71,2.34,6.04,2.34h26.67c2.3,0,4.31-0.79,6.01-2.35c1.71-1.62,2.58-3.6,2.58-5.89v-12.65
			c0-2.25-0.87-4.22-2.58-5.84C161.93-510.94,159.91-511.75,157.6-511.75z"/>
		<path class="st3" d="M757.76-511.75h-26.67c-2.34,0-4.38,0.81-6.08,2.42c-1.66,1.62-2.5,3.58-2.5,5.82v12.65
			c0,2.27,0.84,4.25,2.54,5.91c1.68,1.55,3.71,2.34,6.04,2.34h26.67c2.3,0,4.31-0.79,6.01-2.35c1.71-1.62,2.58-3.6,2.58-5.89v-12.65
			c0-2.25-0.87-4.22-2.58-5.84C762.08-510.94,760.06-511.75,757.76-511.75z"/>
		<path class="st3" d="M24.09-537.16v78.88h926.34v-78.88H24.09z M98.76-473.79H54c-3.23,0-5.88-1.04-8.11-3.18
			c-2.23-2.11-3.31-4.58-3.31-7.56v-25.31c0-2.97,1.08-5.42,3.32-7.51c2.25-2.17,4.9-3.22,8.1-3.22h44.19v8.82H60.66
			c-2.34,0-4.38,0.81-6.08,2.42c-1.66,1.62-2.51,3.58-2.51,5.82v12.65c0,2.28,0.84,4.25,2.51,5.87l0.04,0.04
			c1.68,1.55,3.71,2.34,6.04,2.34h38.09V-473.79z M175.44-484.53c0,2.99-1.09,5.46-3.36,7.56c-2.26,2.14-4.89,3.18-8.06,3.18h-40.01
			c-3.23,0-5.88-1.04-8.11-3.18c-2.23-2.11-3.31-4.58-3.31-7.56v-25.31c0-2.97,1.08-5.42,3.32-7.51c2.26-2.17,4.9-3.22,8.1-3.22
			h40.01c3.19,0,5.82,1.05,8.07,3.24c2.26,2.11,3.35,4.56,3.35,7.5V-484.53z M258.8-484.53c0,2.99-1.09,5.46-3.36,7.56
			c-2.26,2.14-4.89,3.18-8.06,3.18h-1.67c-3.23,0-5.8-1.07-8.06-3.24l-3.16-3.31c-0.38-0.35-0.75-0.7-1.13-1.06
			c-0.47-0.44-0.95-0.89-1.42-1.33c-0.56-0.52-1.11-1.04-1.67-1.56c-0.63-0.59-1.25-1.17-1.88-1.76c-0.68-0.64-1.36-1.27-2.04-1.91
			c-0.72-0.67-1.44-1.35-2.16-2.02c-0.74-0.7-1.49-1.39-2.24-2.09c-0.76-0.71-1.51-1.41-2.27-2.12c-0.75-0.7-1.5-1.41-2.26-2.11
			c-0.73-0.69-1.47-1.37-2.2-2.06c-0.7-0.65-1.4-1.31-2.1-1.96c-0.65-0.61-1.3-1.22-1.96-1.83c-0.59-0.55-1.18-1.1-1.77-1.66
			c-0.51-0.48-1.04-0.95-1.54-1.44c-0.67-0.66-1.24-1.27-1.89-1.9c-0.55-0.53-1.2-1.14-1.97-1.32c-0.05-0.01-0.11-0.02-0.16-0.03
			c-0.6-0.09-1.21,0.06-1.76,0.27c-0.66,0.25-1.3,0.65-1.8,1.15c-0.98,0.98-1.5,2.22-1.5,3.58v29.72h-9.5v-36.04
			c0-2.97,1.08-5.42,3.32-7.51c2.25-2.17,4.9-3.22,8.1-3.22h1.67c3.19,0,5.62,1,7.88,3.21c0.7,0.64,1.22,1.36,1.91,2.03l0.22,0.2
			c0.14,0.13,0.28,0.27,0.42,0.4c0.37,0.35,0.75,0.71,1.12,1.07c0.57,0.54,1.14,1.08,1.71,1.63c0.73,0.7,1.47,1.39,2.2,2.09
			c0.86,0.82,1.72,1.63,2.57,2.45c0.95,0.9,1.9,1.8,2.84,2.7c1,0.95,2.01,1.9,3.01,2.86c1.02,0.97,2.04,1.94,3.06,2.91
			c1,0.95,2.01,1.91,3.01,2.86c0.95,0.9,1.9,1.81,2.85,2.71c0.86,0.82,1.72,1.64,2.58,2.45c0.74,0.7,1.47,1.4,2.21,2.1
			c0.58,0.55,1.15,1.09,1.73,1.64c0.49,0.47,1.07,1.09,1.71,1.36c0.72,0.31,1.55,0.14,2.26-0.09c0.75-0.25,1.46-0.64,2.04-1.18
			c1.04-0.98,1.59-2.25,1.59-3.66v-29.72h9.5V-484.53z M335.48-478.2c0,1.23-0.44,2.21-1.36,3.09c-0.96,0.89-2.07,1.32-3.39,1.32
			h-59.77v-8.82h49.76c1.37,0,2.62-0.48,3.66-1.42c1.04-0.98,1.59-2.25,1.59-3.66c0-1.38-0.55-2.63-1.59-3.62
			c-1.01-0.96-2.28-1.46-3.66-1.46h-43.34c-1.35,0-2.48-0.43-3.4-1.29c-0.92-0.9-1.35-1.89-1.35-3.13v-18.93
			c0-1.24,0.43-2.23,1.33-3.11c0.96-0.91,2.08-1.35,3.42-1.35h56.43v8.82h-46.43c-1.42,0-2.71,0.51-3.75,1.5
			c-0.98,0.98-1.5,2.22-1.5,3.58c0,1.39,0.52,2.65,1.5,3.63l0.08,0.07c1.01,0.9,2.28,1.38,3.68,1.38h43.34
			c1.31,0,2.41,0.44,3.37,1.35c0.94,0.9,1.38,1.87,1.38,3.06V-478.2z M408.84-511.75h-26.67v37.96h-9.5v-37.96h-26.67v-8.82h62.85
			V-511.75z M476.24-473.79l-1.92-11.11l-0.42-2.13l-0.08-0.29c-0.41-1.13-1.1-2.16-2.04-3.06c-1.68-1.59-3.7-2.4-6.01-2.4h-36.92
			v18.98h-9.5v-46.78h58.1c1.31,0,2.41,0.44,3.37,1.35c0.94,0.9,1.38,1.87,1.38,3.06v11.07c0,2.99-1.09,5.46-3.39,7.59
			c-0.55,0.55-1.15,1.02-1.77,1.4l-2.74,1.65c0.13,0.06,0.25,0.13,0.38,0.19c0.82,0.43,1.6,0.91,2.4,1.38
			c0.8,0.47,1.59,0.95,2.34,1.49c1.42,1.04,2.59,2.34,3.37,3.9c0.52,1.04,0.79,2.19,1.11,3.31c0.03,0.09,0.05,0.18,0.07,0.26
			l2.67,10.13H476.24z M558.87-484.53c0,2.99-1.09,5.46-3.36,7.56c-2.26,2.14-4.89,3.18-8.06,3.18h-40.01
			c-3.23,0-5.88-1.04-8.11-3.18c-2.23-2.11-3.31-4.58-3.31-7.56v-36.04h9.51v29.72c0,2.28,0.84,4.25,2.54,5.91
			c1.68,1.55,3.71,2.34,6.04,2.34h26.67c2.3,0,4.31-0.79,6.01-2.35c1.71-1.62,2.58-3.6,2.58-5.89v-29.72h9.5V-484.53z
			 M628.89-473.79h-44.76c-3.23,0-5.88-1.04-8.11-3.18c-2.23-2.11-3.31-4.58-3.31-7.56v-25.31c0-2.97,1.08-5.42,3.32-7.51
			c2.25-2.17,4.9-3.22,8.1-3.22h44.19v8.82H590.8c-2.34,0-4.38,0.81-6.08,2.42c-1.66,1.62-2.51,3.58-2.51,5.82v12.65
			c0,2.28,0.84,4.25,2.51,5.87l0.04,0.04c1.68,1.55,3.71,2.34,6.04,2.34h38.09V-473.79z M702.24-511.75h-26.67v37.96h-9.51v-37.96
			h-26.67v-8.82h62.85V-511.75z M775.6-484.53c0,2.99-1.09,5.46-3.36,7.56c-2.26,2.14-4.89,3.18-8.06,3.18h-40.01
			c-3.23,0-5.88-1.04-8.11-3.18c-2.23-2.11-3.31-4.58-3.31-7.56v-25.31c0-2.97,1.08-5.42,3.32-7.51c2.25-2.17,4.9-3.22,8.1-3.22
			h40.01c3.19,0,5.82,1.05,8.07,3.24c2.26,2.11,3.35,4.56,3.35,7.5V-484.53z M846.62-473.79l-1.92-11.11l-0.42-2.13l-0.08-0.29
			c-0.41-1.13-1.1-2.16-2.04-3.06c-1.68-1.59-3.7-2.4-6.01-2.4h-36.92v18.98h-9.5v-46.78h58.1c1.31,0,2.41,0.44,3.37,1.35
			c0.94,0.9,1.38,1.87,1.38,3.06v11.07c0,2.99-1.09,5.46-3.39,7.59c-0.55,0.55-1.15,1.02-1.77,1.4l-2.74,1.65
			c0.13,0.06,0.25,0.13,0.38,0.19c0.82,0.43,1.6,0.91,2.4,1.38c0.8,0.47,1.59,0.95,2.34,1.49c1.42,1.04,2.59,2.34,3.37,3.9
			c0.52,1.04,0.79,2.19,1.11,3.31c0.03,0.09,0.05,0.18,0.07,0.26l2.67,10.13H846.62z M918.7-473.79l-5-9.49h-32.32l-5,9.49h-12.34
			l21.57-40.93l0.26-0.4c0.5-0.78,1.13-1.52,1.9-2.22c2.25-2.17,4.9-3.22,8.1-3.22h3.33c3.19,0,5.82,1.05,8.09,3.26
			c0.73,0.67,1.36,1.4,1.86,2.19l0.29,0.46c0.16,0.26,0.32,0.52,0.46,0.79l21.13,40.09H918.7z"/>
		<path class="st3" d="M897.59-512.48L897.59-512.48l-0.01,0c-0.01,0-0.02,0-0.03,0c-1.52,0-2.52,1.05-3.19,2.42l-9.98,19h26.36
			l-9.86-18.78C900.22-511.28,899.17-512.46,897.59-512.48z"/>
	</g>
</g>
<g>
	<g>
		<g>
			<path class="st2" d="M-1297.08-212.8c-7.55,0-13.93-2.54-19.15-7.61c-5.29-5.08-7.94-11.2-7.94-18.37v-51.97
				c0-7.17,2.65-13.26,7.94-18.27c5.29-5.14,11.67-7.71,19.15-7.71h81.25c7.48,0,13.82,2.57,19.04,7.71
				c5.36,5.08,8.04,11.16,8.04,18.27v51.97c0,7.24-2.68,13.36-8.04,18.37c-5.29,5.07-11.64,7.61-19.04,7.61H-1297.08z
				 M-1229.37-238.78c3.67,0,6.84-1.25,9.52-3.76c2.68-2.57,4.02-5.65,4.02-9.24v-25.98c0-3.52-1.34-6.56-4.02-9.13
				c-2.68-2.57-5.86-3.86-9.52-3.86h-54.17c-3.74,0-6.95,1.29-9.63,3.86c-2.61,2.57-3.91,5.62-3.91,9.13v25.98
				c0,3.59,1.3,6.67,3.91,9.24c2.68,2.5,5.89,3.76,9.63,3.76H-1229.37z"/>
			<path class="st2" d="M-1168.43-212.8v-103.93h121.88c3.67,0,6.84,1.29,9.52,3.86c2.68,2.57,4.02,5.62,4.02,9.13v38.97
				c0,3.59-1.34,6.67-4.02,9.24c-2.68,2.5-5.86,3.76-9.52,3.76h-94.79v38.97H-1168.43z M-1066.87-277.75c1.83,0,3.42-0.61,4.76-1.83
				c1.34-1.28,2.01-2.84,2.01-4.67c0-1.76-0.67-3.28-2.01-4.57c-1.34-1.28-2.93-1.93-4.76-1.93h-74.48v12.99H-1066.87z"/>
			<path class="st2" d="M-985.61-212.8c-7.55,0-13.93-2.54-19.15-7.61c-5.29-5.08-7.93-11.2-7.93-18.37v-51.97
				c0-7.17,2.65-13.26,7.93-18.27c5.29-5.14,11.67-7.71,19.15-7.71h91.41v25.98h-84.64c-1.9,0-3.53,0.64-4.87,1.93
				c-1.27,1.29-1.9,2.81-1.9,4.57v6.5h90.25v25.98h-90.25v6.5c0,1.83,0.63,3.38,1.9,4.67c1.34,1.22,2.96,1.83,4.87,1.83h88.02v25.98
				H-985.61z"/>
			<path class="st2" d="M-870.5-212.8v-77.95c0-7.17,2.65-13.26,7.93-18.27c5.29-5.14,11.67-7.71,19.15-7.71h3.39
				c7.48,0,13.82,2.57,19.04,7.71c1.69,1.56,3.07,3.18,4.13,4.87l61.47,58.87c1.83,0,3.42-0.61,4.76-1.83
				c1.34-1.28,2.01-2.84,2.01-4.67v-64.96h27.08v77.95c0,7.24-2.68,13.36-8.04,18.37c-5.29,5.07-11.64,7.61-19.04,7.61h-3.39
				c-7.55,0-13.93-2.54-19.15-7.61c-1.69-1.56-3.07-3.18-4.13-4.87l-61.36-58.97c-1.9,0-3.53,0.64-4.87,1.93
				c-1.27,1.29-1.9,2.81-1.9,4.57v64.96H-870.5z"/>
		</g>
		<g>
			<path class="st2" d="M-1325.15-127.68v-65.72h21.95v24.64h65.85v-24.64h21.95v65.72h-21.95v-24.64h-65.85v24.64H-1325.15z"/>
			<path class="st2" d="M-1176.99-127.68c-6.12,0-11.29-1.6-15.52-4.81c-4.29-3.21-6.43-7.08-6.43-11.62v-32.86
				c0-4.54,2.14-8.39,6.43-11.55c4.29-3.25,9.46-4.88,15.52-4.88h65.85c6.06,0,11.2,1.63,15.43,4.88c4.34,3.21,6.52,7.06,6.52,11.55
				v32.86c0,4.58-2.17,8.45-6.52,11.62c-4.29,3.21-9.43,4.81-15.43,4.81H-1176.99z M-1122.12-144.12c2.97,0,5.54-0.79,7.72-2.37
				c2.17-1.63,3.26-3.57,3.26-5.84v-16.43c0-2.22-1.09-4.15-3.26-5.78c-2.17-1.63-4.74-2.44-7.72-2.44h-43.9
				c-3.03,0-5.63,0.81-7.8,2.44c-2.11,1.63-3.17,3.55-3.17,5.78v16.43c0,2.27,1.06,4.21,3.17,5.84c2.17,1.58,4.77,2.37,7.8,2.37
				H-1122.12z"/>
			<path class="st2" d="M-1050.78-127.68c-6.12,0-11.29-1.6-15.52-4.81c-4.29-3.21-6.43-7.08-6.43-11.62v-49.29h21.95v41.07
				c0,2.27,1.06,4.21,3.17,5.84c2.17,1.58,4.77,2.37,7.8,2.37h43.9c2.97,0,5.54-0.79,7.72-2.37c2.17-1.63,3.26-3.57,3.26-5.84
				v-41.07h21.95v49.29c0,4.58-2.17,8.45-6.52,11.62c-4.29,3.21-9.43,4.81-15.43,4.81H-1050.78z"/>
			<path class="st2" d="M-949.27-127.68v-16.43h85.05c1.49,0,2.77-0.38,3.86-1.16c1.09-0.81,1.63-1.8,1.63-2.95
				c0-1.11-0.54-2.07-1.63-2.89c-1.09-0.81-2.37-1.22-3.86-1.22h-71.34c-3.03,0-5.63-0.79-7.8-2.38c-2.12-1.63-3.17-3.57-3.17-5.84
				v-24.58c0-2.27,1.06-4.21,3.17-5.84c2.17-1.63,4.77-2.44,7.8-2.44h96.03v16.43h-79.57c-1.54,0-2.86,0.41-3.94,1.22
				c-1.03,0.81-1.54,1.78-1.54,2.89c0,1.16,0.51,2.14,1.54,2.95c1.09,0.77,2.4,1.16,3.94,1.16h71.34c2.97,0,5.54,0.81,7.72,2.44
				c2.17,1.63,3.26,3.55,3.26,5.78v24.65c0,2.27-1.09,4.21-3.26,5.84c-2.17,1.58-4.74,2.37-7.72,2.37H-949.27z"/>
			<path class="st2" d="M-798.36-127.68c-6.12,0-11.29-1.6-15.52-4.81c-4.29-3.21-6.43-7.08-6.43-11.62v-32.86
				c0-4.54,2.14-8.39,6.43-11.55c4.29-3.25,9.46-4.88,15.52-4.88h74.08v16.43h-68.59c-1.54,0-2.86,0.41-3.94,1.22
				c-1.03,0.81-1.54,1.78-1.54,2.89v4.11h73.14v16.43h-73.14v4.11c0,1.16,0.51,2.14,1.54,2.95c1.09,0.77,2.4,1.16,3.94,1.16h71.34
				v16.43H-798.36z"/>
		</g>
		<g>
			<polygon class="st2" points="-1325.15,-815.04 -1325.15,-503.75 -1325.15,-359.42 -1157.11,-359.42 -1157.11,-537.01 
				-1248.28,-537.01 -1023.1,-774.82 -796.67,-537.01 -889.64,-537.01 -889.64,-359.42 -721.05,-359.42 -721.05,-503.75 
				-721.05,-815.04 			"/>
			<rect x="-1325.15" y="-880.06" class="st2" width="604.1" height="44.38"/>
		</g>
	</g>
	<g>
		<path class="st2" d="M-1036.84-89h-25.19v6.63h25.19c0.89,0,1.71-0.31,2.37-0.9l0.03-0.03c0.68-0.64,1.04-1.47,1.04-2.39
			c0-0.9-0.36-1.71-1.04-2.36C-1035.11-88.66-1035.94-89-1036.84-89z"/>
		<path class="st2" d="M-795.06-89h-25.19v6.63h25.19c0.89,0,1.71-0.31,2.37-0.9l0.03-0.03c0.68-0.64,1.04-1.47,1.04-2.39
			c0-0.9-0.36-1.71-1.04-2.36C-793.33-88.66-794.16-89-795.06-89z"/>
		<path class="st2" d="M-1239.1-88.99h-17.41c-1.53,0-2.86,0.53-3.97,1.58c-1.09,1.06-1.64,2.34-1.64,3.8v8.26
			c0,1.48,0.55,2.77,1.66,3.86c1.1,1.01,2.42,1.52,3.94,1.52h17.41c1.5,0,2.81-0.51,3.92-1.54c1.12-1.06,1.68-2.35,1.68-3.84v-8.26
			c0-1.47-0.57-2.75-1.68-3.81C-1236.27-88.47-1237.59-88.99-1239.1-88.99z"/>
		<path class="st2" d="M-847.32-88.99h-17.41c-1.53,0-2.86,0.53-3.97,1.58c-1.08,1.06-1.64,2.34-1.64,3.8v8.26
			c0,1.48,0.55,2.77,1.66,3.86c1.1,1.01,2.42,1.52,3.94,1.52h17.41c1.5,0,2.81-0.51,3.92-1.54c1.12-1.06,1.68-2.35,1.68-3.84v-8.26
			c0-1.47-0.57-2.75-1.68-3.81C-844.5-88.47-845.82-88.99-847.32-88.99z"/>
		<path class="st2" d="M-1326.25-105.58v51.49h604.71v-51.49H-1326.25z M-1277.51-64.21h-29.22c-2.11,0-3.84-0.68-5.29-2.08
			c-1.45-1.38-2.16-2.99-2.16-4.93v-16.52c0-1.94,0.7-3.54,2.17-4.91c1.47-1.42,3.2-2.1,5.29-2.1h28.85v5.76h-24.49
			c-1.53,0-2.86,0.53-3.97,1.58c-1.09,1.06-1.64,2.34-1.64,3.8v8.26c0,1.49,0.55,2.77,1.64,3.83l0.02,0.02
			c1.1,1.01,2.42,1.53,3.94,1.53h24.87V-64.21z M-1227.45-71.22c0,1.95-0.71,3.56-2.19,4.93c-1.47,1.4-3.19,2.08-5.26,2.08h-26.12
			c-2.11,0-3.84-0.68-5.29-2.08c-1.45-1.38-2.16-2.99-2.16-4.93v-16.52c0-1.94,0.7-3.54,2.17-4.91c1.47-1.42,3.2-2.1,5.29-2.1h26.12
			c2.08,0,3.8,0.69,5.27,2.12c1.47,1.38,2.19,2.98,2.19,4.89V-71.22z M-1173.04-71.22c0,1.95-0.71,3.56-2.2,4.93
			c-1.47,1.4-3.19,2.08-5.26,2.08h-1.09c-2.11,0-3.79-0.7-5.26-2.12l-2.06-2.16c-0.25-0.23-0.49-0.46-0.74-0.69
			c-0.31-0.29-0.62-0.58-0.93-0.87c-0.36-0.34-0.73-0.68-1.09-1.02c-0.41-0.38-0.82-0.76-1.23-1.15c-0.44-0.42-0.89-0.83-1.33-1.25
			c-0.47-0.44-0.94-0.88-1.41-1.32c-0.49-0.45-0.97-0.91-1.46-1.36c-0.49-0.46-0.99-0.92-1.48-1.38c-0.49-0.46-0.98-0.92-1.47-1.38
			c-0.48-0.45-0.96-0.9-1.44-1.34c-0.46-0.43-0.91-0.85-1.37-1.28c-0.43-0.4-0.85-0.8-1.28-1.2c-0.39-0.36-0.77-0.72-1.16-1.08
			c-0.34-0.31-0.68-0.62-1.01-0.94c-0.44-0.43-0.81-0.83-1.24-1.24c-0.36-0.34-0.78-0.75-1.28-0.86c-0.04-0.01-0.07-0.01-0.11-0.02
			c-0.39-0.06-0.79,0.04-1.15,0.18c-0.43,0.17-0.85,0.42-1.17,0.75c-0.64,0.64-0.98,1.45-0.98,2.34v19.4h-6.2v-23.53
			c0-1.94,0.7-3.54,2.17-4.91c1.47-1.42,3.2-2.1,5.29-2.1h1.09c2.08,0,3.67,0.65,5.15,2.1c0.46,0.42,0.8,0.89,1.24,1.32l0.14,0.13
			c0.09,0.09,0.18,0.17,0.28,0.26c0.24,0.23,0.49,0.46,0.73,0.7c0.37,0.35,0.75,0.71,1.12,1.06c0.48,0.45,0.96,0.91,1.43,1.36
			c0.56,0.53,1.12,1.06,1.68,1.6c0.62,0.59,1.24,1.18,1.86,1.76c0.65,0.62,1.31,1.24,1.96,1.86c0.67,0.63,1.33,1.27,2,1.9
			c0.66,0.62,1.31,1.24,1.97,1.87c0.62,0.59,1.24,1.18,1.86,1.77c0.56,0.53,1.12,1.07,1.69,1.6c0.48,0.46,0.96,0.91,1.44,1.37
			c0.38,0.36,0.75,0.71,1.13,1.07c0.32,0.31,0.7,0.71,1.12,0.89c0.47,0.2,1.01,0.09,1.48-0.06c0.49-0.16,0.95-0.42,1.33-0.77
			c0.68-0.64,1.04-1.47,1.04-2.39v-19.4h6.2V-71.22z M-1122.98-67.09c0,0.8-0.29,1.44-0.89,2.02c-0.63,0.58-1.35,0.86-2.21,0.86
			h-39.01v-5.76h32.48c0.89,0,1.71-0.31,2.39-0.92c0.68-0.64,1.04-1.47,1.04-2.39c0-0.9-0.36-1.72-1.04-2.36
			c-0.66-0.62-1.49-0.95-2.39-0.95h-28.3c-0.88,0-1.62-0.28-2.22-0.84c-0.6-0.59-0.88-1.23-0.88-2.04v-12.36
			c0-0.81,0.28-1.45,0.87-2.03c0.63-0.59,1.36-0.88,2.23-0.88h36.84v5.76h-30.31c-0.93,0-1.77,0.33-2.45,0.98
			c-0.64,0.64-0.98,1.45-0.98,2.34c0,0.91,0.34,1.73,0.98,2.37l0.05,0.05c0.66,0.59,1.49,0.9,2.4,0.9h28.29
			c0.85,0,1.57,0.29,2.2,0.88c0.62,0.58,0.9,1.22,0.9,2V-67.09z M-1075.09-88.99h-17.41v24.78h-6.2v-24.78h-17.41v-5.76h41.03
			V-88.99z M-1031.09-64.21l-1.25-7.25l-0.27-1.39l-0.05-0.19c-0.27-0.74-0.72-1.41-1.33-1.99c-1.1-1.04-2.42-1.57-3.92-1.57h-24.1
			v12.39h-6.2v-30.54h37.93c0.85,0,1.57,0.29,2.2,0.88c0.62,0.58,0.9,1.22,0.9,2v7.23c0,1.95-0.71,3.56-2.22,4.95
			c-0.36,0.36-0.75,0.67-1.16,0.91l-1.79,1.08c0.08,0.04,0.16,0.08,0.25,0.13c0.53,0.28,1.04,0.6,1.56,0.9
			c0.52,0.3,1.04,0.62,1.53,0.98c0.93,0.68,1.69,1.53,2.2,2.55c0.34,0.68,0.52,1.43,0.73,2.16c0.02,0.06,0.03,0.12,0.05,0.17
			l1.74,6.61H-1031.09z M-977.15-71.22c0,1.95-0.71,3.56-2.19,4.93c-1.47,1.4-3.19,2.08-5.26,2.08h-26.12
			c-2.11,0-3.84-0.68-5.3-2.08c-1.45-1.38-2.16-2.99-2.16-4.93v-23.53h6.21v19.4c0,1.49,0.55,2.77,1.66,3.86
			c1.1,1.01,2.42,1.53,3.94,1.53h17.41c1.5,0,2.81-0.51,3.92-1.54c1.12-1.06,1.68-2.35,1.68-3.84v-19.4h6.2V-71.22z M-931.44-64.21
			h-29.22c-2.11,0-3.84-0.68-5.29-2.08c-1.45-1.38-2.16-2.99-2.16-4.93v-16.52c0-1.94,0.7-3.54,2.17-4.91
			c1.47-1.42,3.2-2.1,5.29-2.1h28.85v5.76h-24.49c-1.53,0-2.86,0.53-3.97,1.58c-1.09,1.06-1.64,2.34-1.64,3.8v8.26
			c0,1.49,0.55,2.77,1.64,3.83l0.02,0.02c1.1,1.01,2.42,1.53,3.94,1.53h24.87V-64.21z M-883.56-88.99h-17.41v24.78h-6.21v-24.78
			h-17.41v-5.76h41.03V-88.99z M-835.67-71.22c0,1.95-0.71,3.56-2.19,4.93c-1.47,1.4-3.19,2.08-5.26,2.08h-26.12
			c-2.11,0-3.84-0.68-5.3-2.08c-1.45-1.38-2.16-2.99-2.16-4.93v-16.52c0-1.94,0.7-3.54,2.17-4.91c1.47-1.42,3.2-2.1,5.29-2.1h26.12
			c2.08,0,3.8,0.69,5.27,2.12c1.47,1.38,2.19,2.98,2.19,4.89V-71.22z M-789.31-64.21l-1.25-7.25l-0.27-1.39l-0.05-0.19
			c-0.27-0.74-0.72-1.41-1.33-1.99c-1.1-1.04-2.42-1.57-3.92-1.57h-24.1v12.39h-6.2v-30.54h37.93c0.85,0,1.57,0.29,2.2,0.88
			c0.62,0.58,0.9,1.22,0.9,2v7.23c0,1.95-0.71,3.56-2.22,4.95c-0.36,0.36-0.75,0.67-1.16,0.91l-1.79,1.08
			c0.08,0.04,0.16,0.08,0.25,0.13c0.53,0.28,1.04,0.6,1.56,0.9c0.52,0.3,1.04,0.62,1.53,0.98c0.93,0.68,1.69,1.53,2.2,2.55
			c0.34,0.68,0.52,1.43,0.73,2.16c0.02,0.06,0.03,0.12,0.05,0.17l1.74,6.61H-789.31z M-742.25-64.21l-3.26-6.2h-21.1l-3.26,6.2
			h-8.05l14.08-26.72l0.17-0.26c0.33-0.51,0.74-0.99,1.24-1.45c1.47-1.42,3.2-2.1,5.29-2.1h2.18c2.08,0,3.8,0.69,5.28,2.13
			c0.48,0.44,0.89,0.92,1.22,1.43l0.19,0.3c0.11,0.17,0.21,0.34,0.3,0.52l13.79,26.17H-742.25z"/>
		<path class="st2" d="M-756.04-89.47L-756.04-89.47L-756.04-89.47c-0.02,0-0.02,0-0.03,0c-0.99,0-1.65,0.69-2.08,1.58l-6.52,12.4
			h17.21l-6.44-12.26C-754.32-88.68-755-89.45-756.04-89.47z"/>
	</g>
</g>
<g>
	<g>
		<g>
			<path d="M-1999.08-212.8c-7.55,0-13.93-2.54-19.15-7.61c-5.29-5.08-7.94-11.2-7.94-18.37v-51.97c0-7.17,2.65-13.26,7.94-18.27
				c5.29-5.14,11.67-7.71,19.15-7.71h81.25c7.48,0,13.82,2.57,19.04,7.71c5.36,5.08,8.04,11.16,8.04,18.27v51.97
				c0,7.24-2.68,13.36-8.04,18.37c-5.29,5.07-11.64,7.61-19.04,7.61H-1999.08z M-1931.37-238.78c3.67,0,6.84-1.25,9.52-3.76
				c2.68-2.57,4.02-5.65,4.02-9.24v-25.98c0-3.52-1.34-6.56-4.02-9.13c-2.68-2.57-5.86-3.86-9.52-3.86h-54.17
				c-3.74,0-6.95,1.29-9.63,3.86c-2.61,2.57-3.91,5.62-3.91,9.13v25.98c0,3.59,1.3,6.67,3.91,9.24c2.68,2.5,5.89,3.76,9.63,3.76
				H-1931.37z"/>
			<path d="M-1870.43-212.8v-103.93h121.88c3.67,0,6.84,1.29,9.52,3.86c2.68,2.57,4.02,5.62,4.02,9.13v38.97
				c0,3.59-1.34,6.67-4.02,9.24c-2.68,2.5-5.86,3.76-9.52,3.76h-94.79v38.97H-1870.43z M-1768.87-277.75c1.83,0,3.42-0.61,4.76-1.83
				c1.34-1.28,2.01-2.84,2.01-4.67c0-1.76-0.67-3.28-2.01-4.57c-1.34-1.28-2.93-1.93-4.76-1.93h-74.48v12.99H-1768.87z"/>
			<path d="M-1687.61-212.8c-7.55,0-13.93-2.54-19.15-7.61c-5.29-5.08-7.93-11.2-7.93-18.37v-51.97c0-7.17,2.64-13.26,7.93-18.27
				c5.29-5.14,11.67-7.71,19.15-7.71h91.41v25.98h-84.64c-1.9,0-3.53,0.64-4.87,1.93c-1.27,1.29-1.9,2.81-1.9,4.57v6.5h90.25v25.98
				h-90.25v6.5c0,1.83,0.63,3.38,1.9,4.67c1.34,1.22,2.96,1.83,4.87,1.83h88.02v25.98H-1687.61z"/>
			<path d="M-1572.5-212.8v-77.95c0-7.17,2.65-13.26,7.94-18.27c5.29-5.14,11.67-7.71,19.15-7.71h3.39c7.48,0,13.82,2.57,19.04,7.71
				c1.69,1.56,3.07,3.18,4.13,4.87l61.47,58.87c1.83,0,3.42-0.61,4.76-1.83c1.34-1.28,2.01-2.84,2.01-4.67v-64.96h27.08v77.95
				c0,7.24-2.68,13.36-8.04,18.37c-5.29,5.07-11.64,7.61-19.04,7.61h-3.39c-7.55,0-13.93-2.54-19.15-7.61
				c-1.69-1.56-3.07-3.18-4.13-4.87l-61.36-58.97c-1.9,0-3.53,0.64-4.87,1.93c-1.27,1.29-1.9,2.81-1.9,4.57v64.96H-1572.5z"/>
		</g>
		<g>
			<path d="M-2027.15-127.68v-65.72h21.95v24.64h65.85v-24.64h21.95v65.72h-21.95v-24.64h-65.85v24.64H-2027.15z"/>
			<path d="M-1878.99-127.68c-6.12,0-11.29-1.6-15.52-4.81c-4.29-3.21-6.43-7.08-6.43-11.62v-32.86c0-4.54,2.14-8.39,6.43-11.55
				c4.29-3.25,9.46-4.88,15.52-4.88h65.85c6.06,0,11.2,1.63,15.43,4.88c4.34,3.21,6.52,7.06,6.52,11.55v32.86
				c0,4.58-2.17,8.45-6.52,11.62c-4.29,3.21-9.43,4.81-15.43,4.81H-1878.99z M-1824.12-144.12c2.97,0,5.54-0.79,7.72-2.37
				c2.17-1.63,3.26-3.57,3.26-5.84v-16.43c0-2.22-1.09-4.15-3.26-5.78c-2.17-1.63-4.74-2.44-7.72-2.44h-43.9
				c-3.03,0-5.63,0.81-7.8,2.44c-2.11,1.63-3.17,3.55-3.17,5.78v16.43c0,2.27,1.06,4.21,3.17,5.84c2.17,1.58,4.77,2.37,7.8,2.37
				H-1824.12z"/>
			<path d="M-1752.78-127.68c-6.12,0-11.29-1.6-15.52-4.81c-4.29-3.21-6.43-7.08-6.43-11.62v-49.29h21.95v41.07
				c0,2.27,1.06,4.21,3.17,5.84c2.17,1.58,4.77,2.37,7.8,2.37h43.9c2.97,0,5.54-0.79,7.72-2.37c2.17-1.63,3.26-3.57,3.26-5.84
				v-41.07h21.95v49.29c0,4.58-2.17,8.45-6.52,11.62c-4.29,3.21-9.43,4.81-15.43,4.81H-1752.78z"/>
			<path d="M-1651.27-127.68v-16.43h85.05c1.49,0,2.77-0.38,3.86-1.16c1.09-0.81,1.63-1.8,1.63-2.95c0-1.11-0.54-2.07-1.63-2.89
				c-1.09-0.81-2.37-1.22-3.86-1.22h-71.34c-3.03,0-5.63-0.79-7.8-2.38c-2.12-1.63-3.17-3.57-3.17-5.84v-24.58
				c0-2.27,1.06-4.21,3.17-5.84c2.17-1.63,4.77-2.44,7.8-2.44h96.03v16.43h-79.57c-1.54,0-2.86,0.41-3.94,1.22
				c-1.03,0.81-1.54,1.78-1.54,2.89c0,1.16,0.51,2.14,1.54,2.95c1.09,0.77,2.4,1.16,3.94,1.16h71.34c2.97,0,5.54,0.81,7.72,2.44
				c2.17,1.63,3.26,3.55,3.26,5.78v24.65c0,2.27-1.09,4.21-3.26,5.84c-2.17,1.58-4.74,2.37-7.72,2.37H-1651.27z"/>
			<path d="M-1500.36-127.68c-6.12,0-11.29-1.6-15.52-4.81c-4.29-3.21-6.43-7.08-6.43-11.62v-32.86c0-4.54,2.14-8.39,6.43-11.55
				c4.29-3.25,9.46-4.88,15.52-4.88h74.08v16.43h-68.59c-1.54,0-2.86,0.41-3.94,1.22c-1.03,0.81-1.54,1.78-1.54,2.89v4.11h73.14
				v16.43h-73.14v4.11c0,1.16,0.51,2.14,1.54,2.95c1.09,0.77,2.4,1.16,3.94,1.16h71.34v16.43H-1500.36z"/>
		</g>
		<g>
			<polygon points="-2027.15,-815.04 -2027.15,-503.75 -2027.15,-359.42 -1859.11,-359.42 -1859.11,-537.01 -1950.28,-537.01 
				-1725.1,-774.82 -1498.67,-537.01 -1591.64,-537.01 -1591.64,-359.42 -1423.05,-359.42 -1423.05,-503.75 -1423.05,-815.04 			"/>
			<rect x="-2027.15" y="-880.06" width="604.1" height="44.38"/>
		</g>
	</g>
	<g>
		<path d="M-1738.84-89h-25.19v6.63h25.19c0.89,0,1.71-0.31,2.37-0.9l0.03-0.03c0.68-0.64,1.04-1.47,1.04-2.39
			c0-0.9-0.36-1.71-1.04-2.36C-1737.11-88.66-1737.94-89-1738.84-89z"/>
		<path d="M-1497.06-89h-25.19v6.63h25.19c0.89,0,1.71-0.31,2.37-0.9l0.03-0.03c0.68-0.64,1.04-1.47,1.04-2.39
			c0-0.9-0.36-1.71-1.04-2.36C-1495.33-88.66-1496.16-89-1497.06-89z"/>
		<path d="M-1941.1-88.99h-17.41c-1.53,0-2.86,0.53-3.97,1.58c-1.09,1.06-1.64,2.34-1.64,3.8v8.26c0,1.48,0.55,2.77,1.66,3.86
			c1.1,1.01,2.42,1.52,3.94,1.52h17.41c1.5,0,2.81-0.51,3.92-1.54c1.12-1.06,1.68-2.35,1.68-3.84v-8.26c0-1.47-0.57-2.75-1.68-3.81
			C-1938.27-88.47-1939.59-88.99-1941.1-88.99z"/>
		<path d="M-1549.32-88.99h-17.41c-1.53,0-2.86,0.53-3.97,1.58c-1.08,1.06-1.64,2.34-1.64,3.8v8.26c0,1.48,0.55,2.77,1.66,3.86
			c1.1,1.01,2.42,1.52,3.94,1.52h17.41c1.5,0,2.81-0.51,3.92-1.54c1.12-1.06,1.68-2.35,1.68-3.84v-8.26c0-1.47-0.57-2.75-1.68-3.81
			C-1546.5-88.47-1547.82-88.99-1549.32-88.99z"/>
		<path d="M-2028.25-105.58v51.49h604.71v-51.49H-2028.25z M-1979.51-64.21h-29.22c-2.11,0-3.84-0.68-5.29-2.08
			c-1.45-1.38-2.16-2.99-2.16-4.93v-16.52c0-1.94,0.7-3.54,2.17-4.91c1.47-1.42,3.2-2.1,5.29-2.1h28.85v5.76h-24.49
			c-1.53,0-2.86,0.53-3.97,1.58c-1.09,1.06-1.64,2.34-1.64,3.8v8.26c0,1.49,0.55,2.77,1.64,3.83l0.02,0.02
			c1.1,1.01,2.42,1.53,3.94,1.53h24.87V-64.21z M-1929.45-71.22c0,1.95-0.71,3.56-2.19,4.93c-1.47,1.4-3.19,2.08-5.26,2.08h-26.12
			c-2.11,0-3.84-0.68-5.29-2.08c-1.45-1.38-2.16-2.99-2.16-4.93v-16.52c0-1.94,0.7-3.54,2.17-4.91c1.47-1.42,3.2-2.1,5.29-2.1h26.12
			c2.08,0,3.8,0.69,5.27,2.12c1.47,1.38,2.19,2.98,2.19,4.89V-71.22z M-1875.04-71.22c0,1.95-0.71,3.56-2.2,4.93
			c-1.47,1.4-3.19,2.08-5.26,2.08h-1.09c-2.11,0-3.79-0.7-5.26-2.12l-2.06-2.16c-0.25-0.23-0.49-0.46-0.74-0.69
			c-0.31-0.29-0.62-0.58-0.93-0.87c-0.36-0.34-0.73-0.68-1.09-1.02c-0.41-0.38-0.82-0.76-1.23-1.15c-0.44-0.42-0.89-0.83-1.33-1.25
			c-0.47-0.44-0.94-0.88-1.41-1.32c-0.49-0.45-0.97-0.91-1.46-1.36c-0.49-0.46-0.99-0.92-1.48-1.38c-0.49-0.46-0.98-0.92-1.47-1.38
			c-0.48-0.45-0.96-0.9-1.44-1.34c-0.46-0.43-0.91-0.85-1.37-1.28c-0.43-0.4-0.85-0.8-1.28-1.2c-0.39-0.36-0.77-0.72-1.16-1.08
			c-0.34-0.31-0.68-0.62-1.01-0.94c-0.44-0.43-0.81-0.83-1.24-1.24c-0.36-0.34-0.78-0.75-1.28-0.86c-0.04-0.01-0.07-0.01-0.11-0.02
			c-0.39-0.06-0.79,0.04-1.15,0.18c-0.43,0.17-0.85,0.42-1.17,0.75c-0.64,0.64-0.98,1.45-0.98,2.34v19.4h-6.2v-23.53
			c0-1.94,0.7-3.54,2.17-4.91c1.47-1.42,3.2-2.1,5.29-2.1h1.09c2.08,0,3.67,0.65,5.15,2.1c0.46,0.42,0.8,0.89,1.24,1.32l0.14,0.13
			c0.09,0.09,0.18,0.17,0.28,0.26c0.24,0.23,0.49,0.46,0.73,0.7c0.37,0.35,0.75,0.71,1.12,1.06c0.48,0.45,0.96,0.91,1.43,1.36
			c0.56,0.53,1.12,1.06,1.68,1.6c0.62,0.59,1.24,1.18,1.86,1.76c0.65,0.62,1.31,1.24,1.96,1.86c0.67,0.63,1.33,1.27,2,1.9
			c0.66,0.62,1.31,1.24,1.97,1.87c0.62,0.59,1.24,1.18,1.86,1.77c0.56,0.53,1.12,1.07,1.69,1.6c0.48,0.46,0.96,0.91,1.44,1.37
			c0.38,0.36,0.75,0.71,1.13,1.07c0.32,0.31,0.7,0.71,1.12,0.89c0.47,0.2,1.01,0.09,1.48-0.06c0.49-0.16,0.95-0.42,1.33-0.77
			c0.68-0.64,1.04-1.47,1.04-2.39v-19.4h6.2V-71.22z M-1824.98-67.09c0,0.8-0.29,1.44-0.89,2.02c-0.63,0.58-1.35,0.86-2.21,0.86
			h-39.01v-5.76h32.48c0.89,0,1.71-0.31,2.39-0.92c0.68-0.64,1.04-1.47,1.04-2.39c0-0.9-0.36-1.72-1.04-2.36
			c-0.66-0.62-1.49-0.95-2.39-0.95h-28.3c-0.88,0-1.62-0.28-2.22-0.84c-0.6-0.59-0.88-1.23-0.88-2.04v-12.36
			c0-0.81,0.28-1.45,0.87-2.03c0.63-0.59,1.36-0.88,2.23-0.88h36.84v5.76h-30.31c-0.93,0-1.77,0.33-2.45,0.98
			c-0.64,0.64-0.98,1.45-0.98,2.34c0,0.91,0.34,1.73,0.98,2.37l0.05,0.05c0.66,0.59,1.49,0.9,2.4,0.9h28.29
			c0.85,0,1.57,0.29,2.2,0.88c0.62,0.58,0.9,1.22,0.9,2V-67.09z M-1777.09-88.99h-17.41v24.78h-6.2v-24.78h-17.41v-5.76h41.03
			V-88.99z M-1733.09-64.21l-1.25-7.25l-0.27-1.39l-0.05-0.19c-0.27-0.74-0.72-1.41-1.33-1.99c-1.1-1.04-2.42-1.57-3.92-1.57h-24.1
			v12.39h-6.2v-30.54h37.93c0.85,0,1.57,0.29,2.2,0.88c0.62,0.58,0.9,1.22,0.9,2v7.23c0,1.95-0.71,3.56-2.22,4.95
			c-0.36,0.36-0.75,0.67-1.16,0.91l-1.79,1.08c0.08,0.04,0.16,0.08,0.25,0.13c0.53,0.28,1.04,0.6,1.56,0.9
			c0.52,0.3,1.04,0.62,1.53,0.98c0.93,0.68,1.69,1.53,2.2,2.55c0.34,0.68,0.52,1.43,0.73,2.16c0.02,0.06,0.03,0.12,0.05,0.17
			l1.74,6.61H-1733.09z M-1679.15-71.22c0,1.95-0.71,3.56-2.19,4.93c-1.47,1.4-3.19,2.08-5.26,2.08h-26.12
			c-2.11,0-3.84-0.68-5.3-2.08c-1.45-1.38-2.16-2.99-2.16-4.93v-23.53h6.21v19.4c0,1.49,0.55,2.77,1.66,3.86
			c1.1,1.01,2.42,1.53,3.94,1.53h17.41c1.5,0,2.81-0.51,3.92-1.54c1.12-1.06,1.68-2.35,1.68-3.84v-19.4h6.2V-71.22z M-1633.44-64.21
			h-29.22c-2.11,0-3.84-0.68-5.3-2.08c-1.45-1.38-2.16-2.99-2.16-4.93v-16.52c0-1.94,0.7-3.54,2.17-4.91c1.47-1.42,3.2-2.1,5.29-2.1
			h28.85v5.76h-24.49c-1.53,0-2.86,0.53-3.97,1.58c-1.09,1.06-1.64,2.34-1.64,3.8v8.26c0,1.49,0.55,2.77,1.64,3.83l0.02,0.02
			c1.1,1.01,2.42,1.53,3.94,1.53h24.87V-64.21z M-1585.56-88.99h-17.41v24.78h-6.21v-24.78h-17.41v-5.76h41.03V-88.99z
			 M-1537.67-71.22c0,1.95-0.71,3.56-2.19,4.93c-1.47,1.4-3.19,2.08-5.26,2.08h-26.12c-2.11,0-3.84-0.68-5.3-2.08
			c-1.45-1.38-2.16-2.99-2.16-4.93v-16.52c0-1.94,0.7-3.54,2.17-4.91c1.47-1.42,3.2-2.1,5.29-2.1h26.12c2.08,0,3.8,0.69,5.27,2.12
			c1.47,1.38,2.19,2.98,2.19,4.89V-71.22z M-1491.31-64.21l-1.25-7.25l-0.27-1.39l-0.05-0.19c-0.27-0.74-0.72-1.41-1.33-1.99
			c-1.1-1.04-2.42-1.57-3.92-1.57h-24.1v12.39h-6.2v-30.54h37.93c0.85,0,1.57,0.29,2.2,0.88c0.62,0.58,0.9,1.22,0.9,2v7.23
			c0,1.95-0.71,3.56-2.22,4.95c-0.36,0.36-0.75,0.67-1.16,0.91l-1.79,1.08c0.08,0.04,0.16,0.08,0.25,0.13
			c0.53,0.28,1.04,0.6,1.56,0.9c0.52,0.3,1.04,0.62,1.53,0.98c0.93,0.68,1.69,1.53,2.2,2.55c0.34,0.68,0.52,1.43,0.73,2.16
			c0.02,0.06,0.03,0.12,0.05,0.17l1.74,6.61H-1491.31z M-1444.25-64.21l-3.26-6.2h-21.1l-3.26,6.2h-8.05l14.08-26.72l0.17-0.26
			c0.33-0.51,0.74-0.99,1.24-1.45c1.47-1.42,3.2-2.1,5.29-2.1h2.18c2.08,0,3.8,0.69,5.28,2.13c0.48,0.44,0.89,0.92,1.22,1.43
			l0.19,0.3c0.11,0.17,0.21,0.34,0.3,0.52l13.79,26.17H-1444.25z"/>
		<path d="M-1458.04-89.47L-1458.04-89.47L-1458.04-89.47c-0.02,0-0.02,0-0.03,0c-0.99,0-1.65,0.69-2.08,1.58l-6.52,12.4h17.21
			l-6.44-12.26C-1456.32-88.68-1457-89.45-1458.04-89.47z"/>
	</g>
</g>
<g>
	<g>
		<g>
			<path class="st4" d="M-2691.69-212.8c-7.55,0-13.93-2.54-19.15-7.61c-5.29-5.08-7.94-11.2-7.94-18.37v-51.97
				c0-7.17,2.65-13.26,7.94-18.27c5.29-5.14,11.67-7.71,19.15-7.71h81.25c7.48,0,13.82,2.57,19.04,7.71
				c5.36,5.08,8.04,11.16,8.04,18.27v51.97c0,7.24-2.68,13.36-8.04,18.37c-5.29,5.07-11.64,7.61-19.04,7.61H-2691.69z
				 M-2623.98-238.78c3.67,0,6.84-1.25,9.52-3.76c2.68-2.57,4.02-5.65,4.02-9.24v-25.98c0-3.52-1.34-6.56-4.02-9.13
				c-2.68-2.57-5.86-3.86-9.52-3.86h-54.17c-3.74,0-6.95,1.29-9.63,3.86c-2.61,2.57-3.91,5.62-3.91,9.13v25.98
				c0,3.59,1.3,6.67,3.91,9.24c2.68,2.5,5.89,3.76,9.63,3.76H-2623.98z"/>
			<path class="st4" d="M-2563.04-212.8v-103.93h121.88c3.67,0,6.84,1.29,9.52,3.86c2.68,2.57,4.02,5.62,4.02,9.13v38.97
				c0,3.59-1.34,6.67-4.02,9.24c-2.68,2.5-5.86,3.76-9.52,3.76h-94.79v38.97H-2563.04z M-2461.47-277.75c1.83,0,3.42-0.61,4.76-1.83
				c1.34-1.28,2.01-2.84,2.01-4.67c0-1.76-0.67-3.28-2.01-4.57c-1.34-1.28-2.93-1.93-4.76-1.93h-74.48v12.99H-2461.47z"/>
			<path class="st4" d="M-2380.22-212.8c-7.55,0-13.93-2.54-19.15-7.61c-5.29-5.08-7.93-11.2-7.93-18.37v-51.97
				c0-7.17,2.65-13.26,7.93-18.27c5.29-5.14,11.67-7.71,19.15-7.71h91.41v25.98h-84.64c-1.9,0-3.53,0.64-4.87,1.93
				c-1.27,1.29-1.9,2.81-1.9,4.57v6.5h90.25v25.98h-90.25v6.5c0,1.83,0.63,3.38,1.9,4.67c1.34,1.22,2.96,1.83,4.87,1.83h88.02v25.98
				H-2380.22z"/>
			<path class="st4" d="M-2265.11-212.8v-77.95c0-7.17,2.65-13.26,7.94-18.27c5.29-5.14,11.67-7.71,19.15-7.71h3.39
				c7.48,0,13.82,2.57,19.04,7.71c1.69,1.56,3.07,3.18,4.13,4.87l61.47,58.87c1.83,0,3.42-0.61,4.76-1.83
				c1.34-1.28,2.01-2.84,2.01-4.67v-64.96h27.08v77.95c0,7.24-2.68,13.36-8.04,18.37c-5.29,5.07-11.64,7.61-19.04,7.61h-3.39
				c-7.55,0-13.93-2.54-19.15-7.61c-1.69-1.56-3.07-3.18-4.13-4.87l-61.36-58.97c-1.9,0-3.53,0.64-4.87,1.93
				c-1.27,1.29-1.9,2.81-1.9,4.57v64.96H-2265.11z"/>
		</g>
		<g>
			<path class="st4" d="M-2719.76-127.68v-65.72h21.95v24.64h65.85v-24.64h21.95v65.72h-21.95v-24.64h-65.85v24.64H-2719.76z"/>
			<path class="st4" d="M-2571.6-127.68c-6.12,0-11.29-1.6-15.52-4.81c-4.29-3.21-6.43-7.08-6.43-11.62v-32.86
				c0-4.54,2.14-8.39,6.43-11.55c4.29-3.25,9.46-4.88,15.52-4.88h65.85c6.06,0,11.2,1.63,15.43,4.88c4.34,3.21,6.52,7.06,6.52,11.55
				v32.86c0,4.58-2.17,8.45-6.52,11.62c-4.29,3.21-9.43,4.81-15.43,4.81H-2571.6z M-2516.73-144.12c2.97,0,5.54-0.79,7.72-2.37
				c2.17-1.63,3.26-3.57,3.26-5.84v-16.43c0-2.22-1.09-4.15-3.26-5.78c-2.17-1.63-4.75-2.44-7.72-2.44h-43.9
				c-3.03,0-5.63,0.81-7.8,2.44c-2.11,1.63-3.17,3.55-3.17,5.78v16.43c0,2.27,1.06,4.21,3.17,5.84c2.17,1.58,4.77,2.37,7.8,2.37
				H-2516.73z"/>
			<path class="st4" d="M-2445.39-127.68c-6.12,0-11.29-1.6-15.52-4.81c-4.29-3.21-6.43-7.08-6.43-11.62v-49.29h21.95v41.07
				c0,2.27,1.06,4.21,3.17,5.84c2.17,1.58,4.77,2.37,7.8,2.37h43.9c2.97,0,5.54-0.79,7.72-2.37c2.17-1.63,3.26-3.57,3.26-5.84
				v-41.07h21.95v49.29c0,4.58-2.17,8.45-6.52,11.62c-4.29,3.21-9.43,4.81-15.43,4.81H-2445.39z"/>
			<path class="st4" d="M-2343.87-127.68v-16.43h85.05c1.49,0,2.77-0.38,3.86-1.16c1.09-0.81,1.63-1.8,1.63-2.95
				c0-1.11-0.54-2.07-1.63-2.89c-1.09-0.81-2.37-1.22-3.86-1.22h-71.34c-3.03,0-5.63-0.79-7.8-2.38c-2.12-1.63-3.17-3.57-3.17-5.84
				v-24.58c0-2.27,1.06-4.21,3.17-5.84c2.17-1.63,4.77-2.44,7.8-2.44h96.03v16.43h-79.57c-1.54,0-2.86,0.41-3.94,1.22
				c-1.03,0.81-1.54,1.78-1.54,2.89c0,1.16,0.51,2.14,1.54,2.95c1.09,0.77,2.4,1.16,3.94,1.16h71.34c2.97,0,5.54,0.81,7.72,2.44
				c2.17,1.63,3.26,3.55,3.26,5.78v24.65c0,2.27-1.09,4.21-3.26,5.84c-2.17,1.58-4.74,2.37-7.72,2.37H-2343.87z"/>
			<path class="st4" d="M-2192.97-127.68c-6.12,0-11.29-1.6-15.52-4.81c-4.29-3.21-6.43-7.08-6.43-11.62v-32.86
				c0-4.54,2.14-8.39,6.43-11.55c4.29-3.25,9.46-4.88,15.52-4.88h74.08v16.43h-68.59c-1.54,0-2.86,0.41-3.94,1.22
				c-1.03,0.81-1.54,1.78-1.54,2.89v4.11h73.14v16.43h-73.14v4.11c0,1.16,0.51,2.14,1.54,2.95c1.09,0.77,2.4,1.16,3.94,1.16h71.34
				v16.43H-2192.97z"/>
		</g>
		<g>
			<polygon class="st3" points="-2719.76,-815.04 -2719.76,-503.75 -2719.76,-359.42 -2551.72,-359.42 -2551.72,-537.01 
				-2642.89,-537.01 -2417.71,-774.82 -2191.28,-537.01 -2284.25,-537.01 -2284.25,-359.42 -2115.66,-359.42 -2115.66,-503.75 
				-2115.66,-815.04 			"/>
			<rect x="-2719.76" y="-880.06" class="st3" width="604.1" height="44.38"/>
		</g>
	</g>
	<g>
		<path class="st3" d="M-2431.45-89h-25.19v6.63h25.19c0.89,0,1.71-0.31,2.37-0.9l0.03-0.03c0.68-0.64,1.04-1.47,1.04-2.39
			c0-0.9-0.36-1.71-1.04-2.36C-2429.72-88.66-2430.55-89-2431.45-89z"/>
		<path class="st3" d="M-2189.67-89h-25.19v6.63h25.19c0.89,0,1.71-0.31,2.37-0.9l0.03-0.03c0.68-0.64,1.04-1.47,1.04-2.39
			c0-0.9-0.36-1.71-1.04-2.36C-2187.94-88.66-2188.76-89-2189.67-89z"/>
		<path class="st3" d="M-2633.7-88.99h-17.41c-1.53,0-2.86,0.53-3.97,1.58c-1.09,1.06-1.64,2.34-1.64,3.8v8.26
			c0,1.48,0.55,2.77,1.66,3.86c1.1,1.01,2.42,1.52,3.94,1.52h17.41c1.5,0,2.81-0.51,3.92-1.54c1.12-1.06,1.68-2.35,1.68-3.84v-8.26
			c0-1.47-0.57-2.75-1.68-3.81C-2630.88-88.47-2632.2-88.99-2633.7-88.99z"/>
		<path class="st3" d="M-2241.93-88.99h-17.41c-1.53,0-2.86,0.53-3.97,1.58c-1.08,1.06-1.64,2.34-1.64,3.8v8.26
			c0,1.48,0.55,2.77,1.66,3.86c1.1,1.01,2.42,1.52,3.94,1.52h17.41c1.5,0,2.81-0.51,3.92-1.54c1.12-1.06,1.68-2.35,1.68-3.84v-8.26
			c0-1.47-0.57-2.75-1.68-3.81C-2239.1-88.47-2240.42-88.99-2241.93-88.99z"/>
		<path class="st3" d="M-2720.86-105.58v51.49h604.71v-51.49H-2720.86z M-2672.12-64.21h-29.22c-2.11,0-3.84-0.68-5.29-2.08
			c-1.45-1.38-2.16-2.99-2.16-4.93v-16.52c0-1.94,0.7-3.54,2.17-4.91c1.47-1.42,3.2-2.1,5.29-2.1h28.85v5.76h-24.49
			c-1.53,0-2.86,0.53-3.97,1.58c-1.09,1.06-1.64,2.34-1.64,3.8v8.26c0,1.49,0.55,2.77,1.64,3.83l0.02,0.02
			c1.1,1.01,2.42,1.53,3.94,1.53h24.87V-64.21z M-2622.06-71.22c0,1.95-0.71,3.56-2.19,4.93c-1.47,1.4-3.19,2.08-5.26,2.08h-26.12
			c-2.11,0-3.84-0.68-5.29-2.08c-1.45-1.38-2.16-2.99-2.16-4.93v-16.52c0-1.94,0.7-3.54,2.17-4.91c1.47-1.42,3.2-2.1,5.29-2.1h26.12
			c2.08,0,3.8,0.69,5.27,2.12c1.47,1.38,2.19,2.98,2.19,4.89V-71.22z M-2567.65-71.22c0,1.95-0.71,3.56-2.2,4.93
			c-1.47,1.4-3.19,2.08-5.26,2.08h-1.09c-2.11,0-3.79-0.7-5.26-2.12l-2.06-2.16c-0.25-0.23-0.49-0.46-0.74-0.69
			c-0.31-0.29-0.62-0.58-0.93-0.87c-0.36-0.34-0.73-0.68-1.09-1.02c-0.41-0.38-0.82-0.76-1.23-1.15c-0.44-0.42-0.89-0.83-1.33-1.25
			c-0.47-0.44-0.94-0.88-1.41-1.32c-0.49-0.45-0.97-0.91-1.46-1.36c-0.49-0.46-0.99-0.92-1.48-1.38c-0.49-0.46-0.98-0.92-1.47-1.38
			c-0.48-0.45-0.96-0.9-1.44-1.34c-0.46-0.43-0.91-0.85-1.37-1.28c-0.43-0.4-0.85-0.8-1.28-1.2c-0.39-0.36-0.77-0.72-1.16-1.08
			c-0.34-0.31-0.68-0.62-1.01-0.94c-0.44-0.43-0.81-0.83-1.24-1.24c-0.36-0.34-0.78-0.75-1.28-0.86c-0.04-0.01-0.07-0.01-0.11-0.02
			c-0.39-0.06-0.79,0.04-1.15,0.18c-0.43,0.17-0.85,0.42-1.17,0.75c-0.64,0.64-0.98,1.45-0.98,2.34v19.4h-6.2v-23.53
			c0-1.94,0.7-3.54,2.17-4.91c1.47-1.42,3.2-2.1,5.29-2.1h1.09c2.08,0,3.67,0.65,5.15,2.1c0.46,0.42,0.79,0.89,1.24,1.32l0.14,0.13
			c0.09,0.09,0.18,0.17,0.28,0.26c0.24,0.23,0.49,0.46,0.73,0.7c0.37,0.35,0.75,0.71,1.12,1.06c0.48,0.45,0.96,0.91,1.43,1.36
			c0.56,0.53,1.12,1.06,1.68,1.6c0.62,0.59,1.24,1.18,1.86,1.76c0.65,0.62,1.31,1.24,1.96,1.86c0.67,0.63,1.33,1.27,2,1.9
			c0.66,0.62,1.31,1.24,1.97,1.87c0.62,0.59,1.24,1.18,1.86,1.77c0.56,0.53,1.12,1.07,1.69,1.6c0.48,0.46,0.96,0.91,1.44,1.37
			c0.38,0.36,0.75,0.71,1.13,1.07c0.32,0.31,0.7,0.71,1.12,0.89c0.47,0.2,1.01,0.09,1.48-0.06c0.49-0.16,0.95-0.42,1.33-0.77
			c0.68-0.64,1.04-1.47,1.04-2.39v-19.4h6.2V-71.22z M-2517.59-67.09c0,0.8-0.29,1.44-0.89,2.02c-0.63,0.58-1.35,0.86-2.21,0.86
			h-39.01v-5.76h32.48c0.89,0,1.71-0.31,2.39-0.92c0.68-0.64,1.04-1.47,1.04-2.39c0-0.9-0.36-1.72-1.04-2.36
			c-0.66-0.62-1.49-0.95-2.39-0.95h-28.29c-0.88,0-1.62-0.28-2.22-0.84c-0.6-0.59-0.88-1.23-0.88-2.04v-12.36
			c0-0.81,0.28-1.45,0.87-2.03c0.63-0.59,1.36-0.88,2.23-0.88h36.84v5.76h-30.31c-0.93,0-1.77,0.33-2.45,0.98
			c-0.64,0.64-0.98,1.45-0.98,2.34c0,0.91,0.34,1.73,0.98,2.37l0.05,0.05c0.66,0.59,1.49,0.9,2.4,0.9h28.29
			c0.85,0,1.57,0.29,2.2,0.88c0.62,0.58,0.9,1.22,0.9,2V-67.09z M-2469.7-88.99h-17.41v24.78h-6.2v-24.78h-17.41v-5.76h41.03V-88.99
			z M-2425.7-64.21l-1.25-7.25l-0.27-1.39l-0.05-0.19c-0.27-0.74-0.72-1.41-1.33-1.99c-1.1-1.04-2.42-1.57-3.92-1.57h-24.1v12.39
			h-6.2v-30.54h37.93c0.85,0,1.57,0.29,2.2,0.88c0.62,0.58,0.9,1.22,0.9,2v7.23c0,1.95-0.71,3.56-2.22,4.95
			c-0.36,0.36-0.75,0.67-1.16,0.91l-1.79,1.08c0.08,0.04,0.16,0.08,0.25,0.13c0.53,0.28,1.04,0.6,1.56,0.9
			c0.52,0.3,1.04,0.62,1.53,0.98c0.93,0.68,1.69,1.53,2.2,2.55c0.34,0.68,0.52,1.43,0.73,2.16c0.02,0.06,0.03,0.12,0.05,0.17
			l1.74,6.61H-2425.7z M-2371.76-71.22c0,1.95-0.71,3.56-2.19,4.93c-1.47,1.4-3.19,2.08-5.26,2.08h-26.12
			c-2.11,0-3.84-0.68-5.3-2.08c-1.45-1.38-2.16-2.99-2.16-4.93v-23.53h6.21v19.4c0,1.49,0.55,2.77,1.66,3.86
			c1.1,1.01,2.42,1.53,3.94,1.53h17.41c1.5,0,2.81-0.51,3.92-1.54c1.12-1.06,1.68-2.35,1.68-3.84v-19.4h6.2V-71.22z M-2326.05-64.21
			h-29.22c-2.11,0-3.84-0.68-5.3-2.08c-1.45-1.38-2.16-2.99-2.16-4.93v-16.52c0-1.94,0.71-3.54,2.17-4.91
			c1.47-1.42,3.2-2.1,5.29-2.1h28.84v5.76h-24.49c-1.53,0-2.86,0.53-3.97,1.58c-1.09,1.06-1.64,2.34-1.64,3.8v8.26
			c0,1.49,0.55,2.77,1.64,3.83l0.02,0.02c1.1,1.01,2.42,1.53,3.94,1.53h24.87V-64.21z M-2278.17-88.99h-17.41v24.78h-6.21v-24.78
			h-17.41v-5.76h41.03V-88.99z M-2230.28-71.22c0,1.95-0.71,3.56-2.19,4.93c-1.47,1.4-3.19,2.08-5.26,2.08h-26.12
			c-2.11,0-3.84-0.68-5.29-2.08c-1.45-1.38-2.16-2.99-2.16-4.93v-16.52c0-1.94,0.7-3.54,2.17-4.91c1.47-1.42,3.2-2.1,5.29-2.1h26.12
			c2.08,0,3.8,0.69,5.27,2.12c1.47,1.38,2.19,2.98,2.19,4.89V-71.22z M-2183.92-64.21l-1.25-7.25l-0.27-1.39l-0.05-0.19
			c-0.27-0.74-0.72-1.41-1.33-1.99c-1.1-1.04-2.42-1.57-3.92-1.57h-24.1v12.39h-6.2v-30.54h37.93c0.85,0,1.57,0.29,2.2,0.88
			c0.62,0.58,0.9,1.22,0.9,2v7.23c0,1.95-0.71,3.56-2.22,4.95c-0.36,0.36-0.75,0.67-1.16,0.91l-1.79,1.08
			c0.08,0.04,0.16,0.08,0.25,0.13c0.53,0.28,1.04,0.6,1.56,0.9c0.52,0.3,1.04,0.62,1.53,0.98c0.93,0.68,1.69,1.53,2.2,2.55
			c0.34,0.68,0.52,1.43,0.73,2.16c0.02,0.06,0.03,0.12,0.05,0.17l1.74,6.61H-2183.92z M-2136.86-64.21l-3.26-6.2h-21.1l-3.26,6.2
			h-8.05l14.08-26.72l0.17-0.26c0.33-0.51,0.74-0.99,1.24-1.45c1.47-1.42,3.2-2.1,5.29-2.1h2.18c2.08,0,3.8,0.69,5.28,2.13
			c0.48,0.44,0.89,0.92,1.22,1.43l0.19,0.3c0.11,0.17,0.21,0.34,0.3,0.52l13.79,26.17H-2136.86z"/>
		<path class="st3" d="M-2150.65-89.47L-2150.65-89.47L-2150.65-89.47c-0.02,0-0.02,0-0.03,0c-0.99,0-1.65,0.69-2.08,1.58
			l-6.52,12.4h17.21l-6.44-12.26C-2148.93-88.68-2149.61-89.45-2150.65-89.47z"/>
	</g>
</g>
</svg>
