<?xml version="1.0" encoding="UTF-8"?>
<!-- Generator: Adobe Illustrator 22.0.0, SVG Export Plug-In . SVG Version: 6.00 Build 0)  -->
<svg version="1.1" id="Layer_1" xmlns="http://www.w3.org/2000/svg" xmlns:xlink="http://www.w3.org/1999/xlink" x="0px" y="0px" viewBox="0 0 37.1 34.1" style="enable-background:new 0 0 37.1 34.1;" xml:space="preserve">
<style type="text/css">
	.st0{fill:#333333;}
	.st1{opacity:0.27;}
	.st2{fill:none;}
</style>
<g transform="translate(0 1.621)">
	<g transform="translate(0 19.38)">
		<path class="st0" d="M4.6,13.1c-0.6,0-1.2-0.3-1.5-0.9L0.2,7.1C-0.2,6.3,0,5.3,0.8,4.8c1.6-1,6.9-4.1,9.2-4.2    c1.6-0.1,5.6-0.2,8-0.4c0.5,0,0.9,0.1,1.3,0.3c0.8,0.4,1.4,1.2,1.4,2.2v0l4-0.5l7.8-2.1c1.2-0.3,2.4,0.4,2.7,1.6    c0.3,1-0.2,2-1.1,2.5C30.8,6,22.5,8.6,18.6,9.5c-0.8,0.2-1.7,0.3-2.8,0.5c-3.4,0.6-7.6,1.4-10.4,2.9C5.1,13,4.9,13.1,4.6,13.1z     M18.1,1.9L18.1,1.9C15.6,2,11.6,2.2,10,2.2C8.5,2.3,4,4.6,1.7,6.1c-0.1,0-0.1,0.1,0,0.2l2.8,5.1c0,0.1,0.1,0.1,0.2,0.1    c3-1.6,7.3-2.4,10.9-3c1-0.2,1.9-0.4,2.7-0.5c3.8-0.8,12-3.4,15.1-5.2c0.2-0.1,0.3-0.2,0.3-0.4c0-0.2,0-0.4-0.1-0.5    c-0.2-0.2-0.4-0.3-0.6-0.2L25,3.8L20,4.4c-0.2,0.2-0.5,0.5-0.8,0.6c-0.3,0.1-0.6,0.2-0.9,0.2l-6.2,0.3c-0.4,0-0.8-0.3-0.8-0.7    c0,0,0,0,0,0c0-0.4,0.3-0.8,0.8-0.8l6.2-0.3c0.1,0,0.2,0,0.2-0.1c0.3-0.2,0.5-0.5,0.5-0.9c0-0.3-0.2-0.6-0.4-0.8    C18.5,1.9,18.3,1.9,18.1,1.9z"/>
	</g>
	<g transform="translate(19.281 19.858)">
		<path class="st0" d="M5.4,3.3l0.1-1.2l2.3-1c0.4-0.2,0.6-0.6,0.4-1c-0.2-0.4-0.6-0.6-1-0.4l0,0L0.6,2.4L0,0.9l6.6-2.7    c1.2-0.5,2.6,0.1,3.1,1.3c0.5,1.2-0.1,2.6-1.3,3.1L5.4,3.3z"/>
	</g>
	<path class="st0" d="M27.9,4.4c0-0.3-0.1-0.7-0.4-0.8L22,0.8l-5.2-2.3c-0.3-0.1-0.6-0.1-0.8,0.1l-5.8,5C9.9,3.8,9.8,4.1,9.9,4.3   c0,0,0,0.1,0,0.1c0,0,0,0,0,0.1v10.4l6.5,3.2L27.9,15L27.9,4.4C27.9,4.5,27.9,4.4,27.9,4.4z M16.6,0.1l4.6,2.1l-4.9,4.2l-4.5-2.2   L16.6,0.1z M17.2,10.6l1.8-0.4v1.2l-1.8,0.4V10.6z M11.4,5.8l4.2,2.1v8.1l-4.2-2.1V5.8z M24,14.4l-1.3,0.3V9.2L24,8.8V14.4z    M25.6,13.9V6.6L21.2,8v7.2l-3.9,1.1v-2.8l3.3-0.8V8.1L17.2,9V7.7l5.2-4.5l3.9,1.6v8.9L25.6,13.9z"/>
	<g transform="translate(0.058)" class="st1">
		<rect x="0" y="0" class="st2" width="37" height="32"/>
	</g>
</g>
</svg>